<svg width="388" height="117" viewBox="0 0 388 117" fill="none" xmlns="http://www.w3.org/2000/svg">
<mask id="mask0_327_100" style="mask-type:luminance" maskUnits="userSpaceOnUse" x="2" y="2" width="115" height="114">
<path d="M2.64648 2.45312H117.001V115.453H2.64648V2.45312Z" fill="white"/>
</mask>
<g mask="url(#mask0_327_100)">
<mask id="mask1_327_100" style="mask-type:luminance" maskUnits="userSpaceOnUse" x="2" y="2" width="115" height="114">
<path d="M75.2708 89.3125C72.4167 93.6354 68.0573 95.0469 64.6667 95.0469C61.6042 95.0469 58.5156 93.9375 56.0885 91.6927L19.651 58.099C14.5208 53.3698 14.2083 45.401 18.9479 40.2917C23.6823 35.1875 31.6771 34.8698 36.8073 39.6042L62.2292 63.0365L101.651 2.45312H15.4063C8.45833 2.45312 2.8125 8.07813 2.8125 15.0104V102.896C2.8125 109.828 8.44792 115.453 15.4063 115.453H103.547C110.5 115.453 116.135 109.828 116.135 102.896V26.5052C98.3542 53.8438 76.2708 87.7917 75.2708 89.3125Z" fill="white"/>
</mask>
<g mask="url(#mask1_327_100)">
<path d="M2.8125 2.45312V115.453H116.135V2.45312H2.8125Z" fill="url(#paint0_linear_327_100)"/>
</g>
</g>
<mask id="mask2_327_100" style="mask-type:luminance" maskUnits="userSpaceOnUse" x="2" y="2" width="115" height="114">
<path d="M2.64648 2.45312H117.001V115.453H2.64648V2.45312Z" fill="white"/>
</mask>
<g mask="url(#mask2_327_100)">
<path d="M75.2708 89.3125C72.4167 93.6354 68.0573 95.0469 64.6667 95.0469C61.6042 95.0469 58.5156 93.9375 56.0885 91.6927L19.651 58.099C14.5208 53.3698 14.2083 45.401 18.9479 40.2917C23.6823 35.1875 31.6771 34.8698 36.8073 39.6042L62.2292 63.0365L101.651 2.45312H15.4063C8.45833 2.45312 2.8125 8.07813 2.8125 15.0104V102.896C2.8125 109.828 8.44792 115.453 15.4063 115.453H103.547C110.5 115.453 116.135 109.828 116.135 102.896V26.5052C98.3542 53.8438 76.2708 87.7917 75.2708 89.3125Z" fill="black" fill-opacity="0.2"/>
<path d="M75.2708 89.3125C72.4167 93.6354 68.0573 95.0469 64.6667 95.0469C61.6042 95.0469 58.5156 93.9375 56.0885 91.6927L19.651 58.099C14.5208 53.3698 14.2083 45.401 18.9479 40.2917C23.6823 35.1875 31.6771 34.8698 36.8073 39.6042L62.2292 63.0365L101.651 2.45312H15.4063C8.45833 2.45312 2.8125 8.07813 2.8125 15.0104V102.896C2.8125 109.828 8.44792 115.453 15.4063 115.453H103.547C110.5 115.453 116.135 109.828 116.135 102.896V26.5052C98.3542 53.8438 76.2708 87.7917 75.2708 89.3125Z" fill="white"/>
</g>
<path d="M147.215 49.2559C145.018 49.2559 143.049 48.9017 141.299 48.1934C139.559 47.485 138.174 46.4382 137.132 45.0475C136.09 43.6465 135.538 41.959 135.486 39.985H143.278C143.387 41.0996 143.768 41.9434 144.424 42.5267C145.09 43.11 145.945 43.4017 146.986 43.4017C148.07 43.4017 148.924 43.1517 149.549 42.6517C150.184 42.1517 150.507 41.4642 150.507 40.5892C150.507 39.8392 150.257 39.2246 149.757 38.735C149.257 38.2507 148.637 37.8548 147.903 37.5475C147.179 37.2298 146.153 36.8757 144.82 36.485C142.872 35.8757 141.288 35.2715 140.07 34.6725C138.846 34.0788 137.788 33.1934 136.903 32.0267C136.012 30.86 135.57 29.334 135.57 27.4434C135.57 24.6517 136.58 22.4642 138.611 20.8809C140.637 19.2975 143.278 18.5059 146.528 18.5059C149.83 18.5059 152.497 19.2975 154.528 20.8809C156.554 22.4642 157.637 24.6673 157.778 27.485H149.861C149.804 26.5267 149.445 25.7715 148.778 25.2142C148.122 24.6621 147.288 24.3809 146.278 24.3809C145.387 24.3809 144.674 24.6204 144.132 25.0892C143.59 25.5475 143.32 26.2246 143.32 27.11C143.32 28.084 143.768 28.8392 144.674 29.3809C145.59 29.9225 147.018 30.5059 148.965 31.1309C150.908 31.7871 152.486 32.4121 153.695 33.0059C154.903 33.6048 155.945 34.4798 156.82 35.6309C157.705 36.7715 158.153 38.235 158.153 40.0267C158.153 41.735 157.715 43.2923 156.84 44.6934C155.976 46.084 154.721 47.1934 153.07 48.0267C151.413 48.8496 149.465 49.2559 147.215 49.2559Z" fill="white"/>
<path d="M161.184 36.985C161.184 34.5423 161.647 32.3965 162.579 30.5475C163.507 28.6882 164.772 27.2559 166.371 26.2559C167.965 25.2559 169.751 24.7559 171.725 24.7559C173.402 24.7559 174.876 25.1048 176.142 25.7975C177.402 26.4798 178.382 27.3757 179.079 28.485V25.0892H186.392V48.9642H179.079V45.5892C178.355 46.7038 177.361 47.5996 176.1 48.2767C174.835 48.959 173.355 49.2975 171.663 49.2975C169.73 49.2975 167.965 48.7975 166.371 47.7975C164.772 46.7871 163.507 45.3496 162.579 43.485C161.647 41.61 161.184 39.4434 161.184 36.985ZM179.079 37.0267C179.079 35.209 178.569 33.7715 177.559 32.7142C176.543 31.6621 175.309 31.1309 173.85 31.1309C172.392 31.1309 171.152 31.6517 170.142 32.6934C169.142 33.735 168.642 35.1673 168.642 36.985C168.642 38.8184 169.142 40.2715 170.142 41.3392C171.152 42.4121 172.392 42.9434 173.85 42.9434C175.309 42.9434 176.543 42.4173 177.559 41.36C178.569 40.3079 179.079 38.86 179.079 37.0267Z" fill="white"/>
<path d="M195.367 22.6107C194.076 22.6107 193.018 22.2357 192.201 21.4857C191.393 20.7357 190.992 19.7982 190.992 18.6732C190.992 17.5378 191.393 16.5898 192.201 15.8398C193.018 15.0898 194.076 14.7148 195.367 14.7148C196.617 14.7148 197.643 15.0898 198.451 15.8398C199.268 16.5898 199.68 17.5378 199.68 18.6732C199.68 19.7982 199.268 20.7357 198.451 21.4857C197.643 22.2357 196.617 22.6107 195.367 22.6107ZM198.992 25.0898V48.9648H191.68V25.0898H198.992Z" fill="white"/>
<path d="M227.859 25.0898V48.9648H220.546V45.7148C219.807 46.7721 218.801 47.6211 217.525 48.2565C216.26 48.8971 214.859 49.2148 213.317 49.2148C211.494 49.2148 209.885 48.8138 208.484 48.0065C207.093 47.1888 206.01 46.0169 205.234 44.4857C204.468 42.944 204.088 41.1315 204.088 39.0482V25.0898H211.359V38.0482C211.359 39.6471 211.765 40.8919 212.588 41.7773C213.421 42.668 214.536 43.1107 215.942 43.1107C217.359 43.1107 218.473 42.668 219.296 41.7773C220.13 40.8919 220.546 39.6471 220.546 38.0482V25.0898H227.859Z" fill="white"/>
<path d="M231.662 36.985C231.662 34.5423 232.126 32.3965 233.058 30.5475C233.985 28.6882 235.251 27.2559 236.85 26.2559C238.443 25.2559 240.23 24.7559 242.204 24.7559C243.881 24.7559 245.355 25.1048 246.62 25.7975C247.881 26.4798 248.86 27.3757 249.558 28.485V25.0892H256.87V48.9642H249.558V45.5892C248.834 46.7038 247.839 47.5996 246.579 48.2767C245.313 48.959 243.834 49.2975 242.141 49.2975C240.209 49.2975 238.443 48.7975 236.85 47.7975C235.251 46.7871 233.985 45.3496 233.058 43.485C232.126 41.61 231.662 39.4434 231.662 36.985ZM249.558 37.0267C249.558 35.209 249.048 33.7715 248.037 32.7142C247.021 31.6621 245.787 31.1309 244.329 31.1309C242.87 31.1309 241.631 31.6517 240.62 32.6934C239.62 33.735 239.12 35.1673 239.12 36.985C239.12 38.8184 239.62 40.2715 240.62 41.3392C241.631 42.4121 242.87 42.9434 244.329 42.9434C245.787 42.9434 247.021 42.4173 248.037 41.36C249.048 40.3079 249.558 38.86 249.558 37.0267Z" fill="white"/>
<path d="M260.699 37.0267C260.699 34.5579 261.204 32.3965 262.22 30.5475C263.23 28.6882 264.642 27.2559 266.449 26.2559C268.267 25.2559 270.345 24.7559 272.678 24.7559C275.678 24.7559 278.178 25.5423 280.178 27.11C282.189 28.6829 283.517 30.8913 284.158 33.735H276.366C275.71 31.9173 274.439 31.0059 272.553 31.0059C271.22 31.0059 270.147 31.5267 269.345 32.5684C268.553 33.61 268.158 35.0996 268.158 37.0267C268.158 38.9746 268.553 40.4642 269.345 41.5059C270.147 42.5475 271.22 43.0684 272.553 43.0684C274.439 43.0684 275.71 42.1517 276.366 40.3184H284.158C283.517 43.11 282.184 45.3079 280.158 46.9017C278.142 48.5007 275.647 49.2975 272.678 49.2975C270.345 49.2975 268.267 48.8079 266.449 47.8184C264.642 46.8184 263.23 45.3965 262.22 43.5475C261.204 41.6882 260.699 39.5163 260.699 37.0267Z" fill="white"/>
<path d="M298.906 49.2975C296.557 49.2975 294.447 48.8079 292.572 47.8184C290.708 46.8184 289.244 45.3965 288.176 43.5475C287.104 41.6882 286.572 39.5163 286.572 37.0267C286.572 34.584 287.114 32.4329 288.197 30.5684C289.291 28.6934 290.781 27.2559 292.656 26.2559C294.541 25.2559 296.656 24.7559 298.989 24.7559C301.322 24.7559 303.426 25.2559 305.301 26.2559C307.187 27.2559 308.676 28.6934 309.76 30.5684C310.843 32.4329 311.385 34.584 311.385 37.0267C311.385 39.485 310.833 41.6517 309.739 43.5267C308.64 45.3913 307.14 46.8184 305.239 47.8184C303.348 48.8079 301.239 49.2975 298.906 49.2975ZM298.906 42.985C300.291 42.985 301.479 42.4746 302.468 41.4434C303.452 40.4173 303.947 38.9434 303.947 37.0267C303.947 35.1257 303.468 33.6621 302.51 32.6309C301.551 31.6048 300.374 31.0892 298.989 31.0892C297.557 31.0892 296.369 31.5996 295.426 32.61C294.494 33.6257 294.031 35.0996 294.031 37.0267C294.031 38.9434 294.489 40.4173 295.406 41.4434C296.333 42.4746 297.499 42.985 298.906 42.985Z" fill="white"/>
<path d="M322.586 29.069C323.445 27.7669 324.513 26.7357 325.794 25.9857C327.086 25.2253 328.513 24.8398 330.086 24.8398V32.5898H328.065C326.242 32.5898 324.878 32.9857 323.961 33.7773C323.044 34.5586 322.586 35.9232 322.586 37.8815V48.9648H315.273V25.0898H322.586V29.069Z" fill="white"/>
<path d="M332.117 36.985C332.117 34.5423 332.581 32.3965 333.513 30.5475C334.44 28.6882 335.706 27.2559 337.305 26.2559C338.898 25.2559 340.685 24.7559 342.659 24.7559C344.211 24.7559 345.638 25.084 346.93 25.735C348.232 26.3913 349.263 27.2767 350.013 28.4017V17.3184H357.326V48.9642H350.013V45.5475C349.315 46.6882 348.336 47.5996 347.076 48.2767C345.81 48.959 344.336 49.2975 342.659 49.2975C340.685 49.2975 338.898 48.7975 337.305 47.7975C335.706 46.7871 334.44 45.3496 333.513 43.485C332.581 41.61 332.117 39.4434 332.117 36.985ZM350.013 37.0267C350.013 35.209 349.503 33.7715 348.492 32.7142C347.477 31.6621 346.242 31.1309 344.784 31.1309C343.326 31.1309 342.086 31.6517 341.076 32.6934C340.076 33.735 339.576 35.1673 339.576 36.985C339.576 38.8184 340.076 40.2715 341.076 41.3392C342.086 42.4121 343.326 42.9434 344.784 42.9434C346.242 42.9434 347.477 42.4173 348.492 41.36C349.503 40.3079 350.013 38.86 350.013 37.0267Z" fill="white"/>
<path d="M373.49 49.2975C371.141 49.2975 369.031 48.8079 367.156 47.8184C365.292 46.8184 363.828 45.3965 362.76 43.5475C361.687 41.6882 361.156 39.5163 361.156 37.0267C361.156 34.584 361.698 32.4329 362.781 30.5684C363.875 28.6934 365.365 27.2559 367.24 26.2559C369.125 25.2559 371.24 24.7559 373.573 24.7559C375.906 24.7559 378.01 25.2559 379.885 26.2559C381.771 27.2559 383.26 28.6934 384.344 30.5684C385.427 32.4329 385.969 34.584 385.969 37.0267C385.969 39.485 385.417 41.6517 384.323 43.5267C383.224 45.3913 381.724 46.8184 379.823 47.8184C377.932 48.8079 375.823 49.2975 373.49 49.2975ZM373.49 42.985C374.875 42.985 376.062 42.4746 377.052 41.4434C378.036 40.4173 378.531 38.9434 378.531 37.0267C378.531 35.1257 378.052 33.6621 377.094 32.6309C376.135 31.6048 374.958 31.0892 373.573 31.0892C372.141 31.0892 370.953 31.5996 370.01 32.61C369.078 33.6257 368.615 35.0996 368.615 37.0267C368.615 38.9434 369.073 40.4173 369.99 41.4434C370.917 42.4746 372.083 42.985 373.49 42.985Z" fill="white"/>
<path d="M159.238 77.61C159.238 79.3496 158.831 80.9382 158.029 82.3809C157.238 83.8132 156.014 84.9746 154.363 85.86C152.706 86.7507 150.654 87.1934 148.196 87.1934H143.654V97.9642H136.342V67.9434H148.196C150.581 67.9434 152.602 68.36 154.258 69.1934C155.925 70.0163 157.165 71.1517 157.988 72.61C158.821 74.0579 159.238 75.7246 159.238 77.61ZM147.633 81.36C149.035 81.36 150.076 81.0371 150.758 80.3809C151.436 79.7298 151.779 78.8079 151.779 77.61C151.779 76.4173 151.436 75.4954 150.758 74.8392C150.076 74.1725 149.035 73.8392 147.633 73.8392H143.654V81.36H147.633Z" fill="#41A6E9"/>
<path d="M161.568 85.985C161.568 83.5423 162.032 81.3965 162.964 79.5475C163.891 77.6882 165.157 76.2559 166.756 75.2559C168.35 74.2559 170.136 73.7559 172.11 73.7559C173.787 73.7559 175.261 74.1048 176.527 74.7975C177.787 75.4798 178.766 76.3757 179.464 77.485V74.0892H186.777V97.9642H179.464V94.5892C178.74 95.7038 177.745 96.5996 176.485 97.2767C175.219 97.959 173.74 98.2975 172.048 98.2975C170.115 98.2975 168.35 97.7975 166.756 96.7975C165.157 95.7871 163.891 94.3496 162.964 92.485C162.032 90.61 161.568 88.4434 161.568 85.985ZM179.464 86.0267C179.464 84.209 178.954 82.7715 177.943 81.7142C176.928 80.6621 175.693 80.1309 174.235 80.1309C172.777 80.1309 171.537 80.6517 170.527 81.6934C169.527 82.735 169.027 84.1673 169.027 85.985C169.027 87.8184 169.527 89.2715 170.527 90.3392C171.537 91.4121 172.777 91.9434 174.235 91.9434C175.693 91.9434 176.928 91.4173 177.943 90.36C178.954 89.3079 179.464 87.86 179.464 86.0267Z" fill="#41A6E9"/>
<path d="M199.377 78.069C200.236 76.7669 201.304 75.7357 202.585 74.9857C203.877 74.2253 205.304 73.8398 206.877 73.8398V81.5898H204.856C203.033 81.5898 201.669 81.9857 200.752 82.7773C199.835 83.5586 199.377 84.9232 199.377 86.8815V97.9648H192.064V74.0898H199.377V78.069Z" fill="#41A6E9"/>
<path d="M208.91 86.0267C208.91 83.5579 209.415 81.3965 210.431 79.5475C211.441 77.6882 212.853 76.2559 214.66 75.2559C216.478 74.2559 218.556 73.7559 220.889 73.7559C223.889 73.7559 226.389 74.5423 228.389 76.11C230.4 77.6829 231.728 79.8913 232.368 82.735H224.577C223.921 80.9173 222.65 80.0059 220.764 80.0059C219.431 80.0059 218.358 80.5267 217.556 81.5684C216.764 82.61 216.368 84.0996 216.368 86.0267C216.368 87.9746 216.764 89.4642 217.556 90.5059C218.358 91.5475 219.431 92.0684 220.764 92.0684C222.65 92.0684 223.921 91.1517 224.577 89.3184H232.368C231.728 92.11 230.395 94.3079 228.368 95.9017C226.353 97.5007 223.858 98.2975 220.889 98.2975C218.556 98.2975 216.478 97.8079 214.66 96.8184C212.853 95.8184 211.441 94.3965 210.431 92.5475C209.415 90.6882 208.91 88.5163 208.91 86.0267Z" fill="#41A6E9"/>
<path d="M258.742 85.6517C258.742 86.334 258.7 87.0423 258.617 87.7767H242.054C242.179 89.2663 242.658 90.4017 243.492 91.1934C244.335 91.9746 245.372 92.36 246.596 92.36C248.429 92.36 249.7 91.5892 250.408 90.0475H258.179C257.788 91.6204 257.075 93.0371 256.033 94.2975C254.992 95.5475 253.684 96.5267 252.117 97.235C250.544 97.9434 248.788 98.2975 246.846 98.2975C244.512 98.2975 242.429 97.8079 240.596 96.8184C238.773 95.8184 237.351 94.3965 236.325 92.5475C235.294 90.6882 234.783 88.5163 234.783 86.0267C234.783 83.5579 235.288 81.3965 236.304 79.5475C237.314 77.6882 238.731 76.2559 240.554 75.2559C242.387 74.2559 244.481 73.7559 246.846 73.7559C249.163 73.7559 251.221 74.2454 253.012 75.2142C254.804 76.1882 256.205 77.5684 257.221 79.36C258.231 81.1517 258.742 83.2507 258.742 85.6517ZM251.262 83.7142C251.262 82.4642 250.83 81.4746 249.971 80.735C249.122 79.985 248.054 79.61 246.762 79.61C245.538 79.61 244.502 79.9746 243.658 80.6934C242.825 81.4017 242.309 82.4121 242.117 83.7142H251.262Z" fill="#41A6E9"/>
<path d="M266.273 71.6107C264.982 71.6107 263.924 71.2357 263.107 70.4857C262.299 69.7357 261.898 68.7982 261.898 67.6732C261.898 66.5378 262.299 65.5898 263.107 64.8398C263.924 64.0898 264.982 63.7148 266.273 63.7148C267.523 63.7148 268.549 64.0898 269.357 64.8398C270.174 65.5898 270.586 66.5378 270.586 67.6732C270.586 68.7982 270.174 69.7357 269.357 70.4857C268.549 71.2357 267.523 71.6107 266.273 71.6107ZM269.898 74.0898V97.9648H262.586V74.0898H269.898Z" fill="#41A6E9"/>
<path d="M282.514 78.069C283.373 76.7669 284.441 75.7357 285.722 74.9857C287.014 74.2253 288.441 73.8398 290.014 73.8398V81.5898H287.993C286.17 81.5898 284.805 81.9857 283.889 82.7773C282.972 83.5586 282.514 84.9232 282.514 86.8815V97.9648H275.201V74.0898H282.514V78.069Z" fill="#41A6E9"/>
<path d="M304.38 98.2975C302.031 98.2975 299.922 97.8079 298.047 96.8184C296.182 95.8184 294.719 94.3965 293.651 92.5475C292.578 90.6882 292.047 88.5163 292.047 86.0267C292.047 83.584 292.589 81.4329 293.672 79.5684C294.766 77.6934 296.255 76.2559 298.13 75.2559C300.016 74.2559 302.13 73.7559 304.464 73.7559C306.797 73.7559 308.901 74.2559 310.776 75.2559C312.661 76.2559 314.151 77.6934 315.234 79.5684C316.318 81.4329 316.859 83.584 316.859 86.0267C316.859 88.485 316.307 90.6517 315.214 92.5267C314.115 94.3913 312.615 95.8184 310.714 96.8184C308.823 97.8079 306.714 98.2975 304.38 98.2975ZM304.38 91.985C305.766 91.985 306.953 91.4746 307.943 90.4434C308.927 89.4173 309.422 87.9434 309.422 86.0267C309.422 84.1257 308.943 82.6621 307.984 81.6309C307.026 80.6048 305.849 80.0892 304.464 80.0892C303.031 80.0892 301.844 80.5996 300.901 81.61C299.969 82.6257 299.505 84.0996 299.505 86.0267C299.505 87.9434 299.964 89.4173 300.88 90.4434C301.807 91.4746 302.974 91.985 304.38 91.985Z" fill="#41A6E9"/>
<path d="M330.456 98.2975C328.372 98.2975 326.518 97.9434 324.893 97.235C323.268 96.5267 321.982 95.5579 321.039 94.3184C320.107 93.0684 319.586 91.6725 319.477 90.1309H326.706C326.789 90.9642 327.169 91.6413 327.852 92.1517C328.529 92.6673 329.372 92.9225 330.372 92.9225C331.289 92.9225 331.997 92.7454 332.497 92.3809C332.997 92.0215 333.247 91.5579 333.247 90.985C333.247 90.3079 332.883 89.8079 332.164 89.485C331.456 89.1517 330.299 88.7871 328.706 88.3809C326.997 87.9798 325.57 87.5632 324.435 87.1309C323.294 86.6882 322.31 85.985 321.477 85.0267C320.654 84.0684 320.247 82.7767 320.247 81.1517C320.247 79.7923 320.622 78.5475 321.372 77.4225C322.122 76.2871 323.232 75.3913 324.706 74.735C326.174 74.084 327.924 73.7559 329.956 73.7559C332.94 73.7559 335.294 74.5007 337.018 75.985C338.753 77.4746 339.747 79.4382 339.997 81.8809H333.247C333.133 81.0632 332.768 80.4121 332.143 79.9225C331.529 79.4382 330.727 79.1934 329.727 79.1934C328.878 79.1934 328.227 79.36 327.768 79.6934C327.31 80.0163 327.081 80.459 327.081 81.0267C327.081 81.709 327.44 82.2246 328.164 82.5684C328.898 82.9173 330.039 83.2559 331.581 83.5892C333.341 84.0475 334.779 84.5007 335.893 84.9434C337.003 85.3913 337.977 86.1048 338.81 87.0892C339.654 88.0632 340.091 89.3757 340.122 91.0267C340.122 92.4329 339.727 93.6829 338.935 94.7767C338.154 95.8757 337.029 96.735 335.56 97.36C334.102 97.985 332.398 98.2975 330.456 98.2975Z" fill="#41A6E9"/>
<defs>
<linearGradient id="paint0_linear_327_100" x1="2.81182" y1="58.9491" x2="116.136" y2="58.9491" gradientUnits="userSpaceOnUse">
<stop stop-color="#1C7CB6"/>
<stop offset="0.125" stop-color="#1C7CB6"/>
<stop offset="0.1875" stop-color="#1C7CB6"/>
<stop offset="0.191406" stop-color="#1C7BB6"/>
<stop offset="0.195313" stop-color="#1C7BB6"/>
<stop offset="0.199219" stop-color="#1C7AB5"/>
<stop offset="0.203125" stop-color="#1C79B5"/>
<stop offset="0.207031" stop-color="#1C78B4"/>
<stop offset="0.210938" stop-color="#1D78B4"/>
<stop offset="0.214844" stop-color="#1D77B4"/>
<stop offset="0.21875" stop-color="#1D76B3"/>
<stop offset="0.222656" stop-color="#1D75B3"/>
<stop offset="0.226563" stop-color="#1D75B3"/>
<stop offset="0.230469" stop-color="#1D74B2"/>
<stop offset="0.234375" stop-color="#1D73B2"/>
<stop offset="0.238281" stop-color="#1D72B2"/>
<stop offset="0.242188" stop-color="#1D72B1"/>
<stop offset="0.246094" stop-color="#1D71B1"/>
<stop offset="0.25" stop-color="#1E70B0"/>
<stop offset="0.253906" stop-color="#1E6FB0"/>
<stop offset="0.257813" stop-color="#1E6FB0"/>
<stop offset="0.261719" stop-color="#1E6EAF"/>
<stop offset="0.265625" stop-color="#1E6DAF"/>
<stop offset="0.269531" stop-color="#1E6CAF"/>
<stop offset="0.273438" stop-color="#1E6CAE"/>
<stop offset="0.277344" stop-color="#1E6BAE"/>
<stop offset="0.28125" stop-color="#1E6AAE"/>
<stop offset="0.285156" stop-color="#1E69AD"/>
<stop offset="0.289063" stop-color="#1F68AD"/>
<stop offset="0.292969" stop-color="#1F68AD"/>
<stop offset="0.296875" stop-color="#1F67AC"/>
<stop offset="0.300781" stop-color="#1F66AC"/>
<stop offset="0.304688" stop-color="#1F65AB"/>
<stop offset="0.308594" stop-color="#1F65AB"/>
<stop offset="0.3125" stop-color="#1F64AB"/>
<stop offset="0.316406" stop-color="#1F63AA"/>
<stop offset="0.320313" stop-color="#1F62AA"/>
<stop offset="0.324219" stop-color="#1F62AA"/>
<stop offset="0.328125" stop-color="#2061A9"/>
<stop offset="0.332031" stop-color="#2060A9"/>
<stop offset="0.335938" stop-color="#205FA9"/>
<stop offset="0.339844" stop-color="#205FA8"/>
<stop offset="0.34375" stop-color="#205EA8"/>
<stop offset="0.347656" stop-color="#205DA7"/>
<stop offset="0.351563" stop-color="#205CA7"/>
<stop offset="0.355469" stop-color="#205BA7"/>
<stop offset="0.359375" stop-color="#205BA6"/>
<stop offset="0.363281" stop-color="#205AA6"/>
<stop offset="0.367188" stop-color="#2159A6"/>
<stop offset="0.371094" stop-color="#2158A5"/>
<stop offset="0.375" stop-color="#2158A5"/>
<stop offset="0.378906" stop-color="#2157A5"/>
<stop offset="0.382813" stop-color="#2156A4"/>
<stop offset="0.386719" stop-color="#2155A4"/>
<stop offset="0.390625" stop-color="#2155A4"/>
<stop offset="0.394531" stop-color="#2154A3"/>
<stop offset="0.398438" stop-color="#2153A3"/>
<stop offset="0.402344" stop-color="#2152A2"/>
<stop offset="0.40625" stop-color="#2252A2"/>
<stop offset="0.410156" stop-color="#2251A2"/>
<stop offset="0.414062" stop-color="#2250A1"/>
<stop offset="0.417969" stop-color="#224FA1"/>
<stop offset="0.421875" stop-color="#224FA1"/>
<stop offset="0.425781" stop-color="#234EA0"/>
<stop offset="0.429688" stop-color="#244DA0"/>
<stop offset="0.433594" stop-color="#254DA0"/>
<stop offset="0.4375" stop-color="#264CA0"/>
<stop offset="0.441406" stop-color="#274B9F"/>
<stop offset="0.445313" stop-color="#274B9F"/>
<stop offset="0.449219" stop-color="#284A9F"/>
<stop offset="0.453125" stop-color="#29499E"/>
<stop offset="0.457031" stop-color="#2A499E"/>
<stop offset="0.460938" stop-color="#2B489E"/>
<stop offset="0.464844" stop-color="#2C479D"/>
<stop offset="0.46875" stop-color="#2C479D"/>
<stop offset="0.472656" stop-color="#2D469D"/>
<stop offset="0.476563" stop-color="#2E459D"/>
<stop offset="0.480469" stop-color="#2F459C"/>
<stop offset="0.484375" stop-color="#30449C"/>
<stop offset="0.488281" stop-color="#31439C"/>
<stop offset="0.492188" stop-color="#31439B"/>
<stop offset="0.496094" stop-color="#32429B"/>
<stop offset="0.5" stop-color="#33419B"/>
<stop offset="0.503906" stop-color="#34419A"/>
<stop offset="0.507812" stop-color="#35409A"/>
<stop offset="0.511719" stop-color="#363F9A"/>
<stop offset="0.515625" stop-color="#363F9A"/>
<stop offset="0.519531" stop-color="#373E99"/>
<stop offset="0.523438" stop-color="#383D99"/>
<stop offset="0.527344" stop-color="#393D99"/>
<stop offset="0.53125" stop-color="#3A3C98"/>
<stop offset="0.535156" stop-color="#3A3B98"/>
<stop offset="0.539062" stop-color="#3B3B98"/>
<stop offset="0.542969" stop-color="#3C3A97"/>
<stop offset="0.546875" stop-color="#3D3997"/>
<stop offset="0.550781" stop-color="#3E3997"/>
<stop offset="0.554688" stop-color="#3F3897"/>
<stop offset="0.558594" stop-color="#3F3796"/>
<stop offset="0.5625" stop-color="#403796"/>
<stop offset="0.566406" stop-color="#413696"/>
<stop offset="0.570312" stop-color="#423595"/>
<stop offset="0.574219" stop-color="#433595"/>
<stop offset="0.578125" stop-color="#443495"/>
<stop offset="0.582031" stop-color="#443394"/>
<stop offset="0.585938" stop-color="#453394"/>
<stop offset="0.589844" stop-color="#463294"/>
<stop offset="0.59375" stop-color="#473194"/>
<stop offset="0.597656" stop-color="#483193"/>
<stop offset="0.601562" stop-color="#493093"/>
<stop offset="0.605469" stop-color="#492F93"/>
<stop offset="0.609375" stop-color="#4A2F92"/>
<stop offset="0.613281" stop-color="#4B2E92"/>
<stop offset="0.617188" stop-color="#4C2D92"/>
<stop offset="0.621094" stop-color="#4D2D91"/>
<stop offset="0.625" stop-color="#4E2C91"/>
<stop offset="0.628906" stop-color="#4E2B91"/>
<stop offset="0.632812" stop-color="#4F2B91"/>
<stop offset="0.636719" stop-color="#502A90"/>
<stop offset="0.640625" stop-color="#512990"/>
<stop offset="0.644531" stop-color="#522990"/>
<stop offset="0.648438" stop-color="#52288F"/>
<stop offset="0.652344" stop-color="#53278F"/>
<stop offset="0.65625" stop-color="#54278F"/>
<stop offset="0.660156" stop-color="#55268E"/>
<stop offset="0.664062" stop-color="#56268E"/>
<stop offset="0.667969" stop-color="#57258E"/>
<stop offset="0.671875" stop-color="#57248E"/>
<stop offset="0.675781" stop-color="#58248D"/>
<stop offset="0.679688" stop-color="#59238D"/>
<stop offset="0.683594" stop-color="#5A238D"/>
<stop offset="0.6875" stop-color="#5A228D"/>
<stop offset="0.691406" stop-color="#5B228C"/>
<stop offset="0.695312" stop-color="#5C218C"/>
<stop offset="0.699219" stop-color="#5C218C"/>
<stop offset="0.703125" stop-color="#5D218C"/>
<stop offset="0.707031" stop-color="#5D208C"/>
<stop offset="0.710938" stop-color="#5E208B"/>
<stop offset="0.714844" stop-color="#5F208B"/>
<stop offset="0.71875" stop-color="#5F1F8B"/>
<stop offset="0.722656" stop-color="#601F8B"/>
<stop offset="0.726562" stop-color="#611E8B"/>
<stop offset="0.730469" stop-color="#611E8A"/>
<stop offset="0.734375" stop-color="#621E8A"/>
<stop offset="0.738281" stop-color="#631D8A"/>
<stop offset="0.742187" stop-color="#631D8A"/>
<stop offset="0.746094" stop-color="#641D8A"/>
<stop offset="0.75" stop-color="#641C89"/>
<stop offset="0.753906" stop-color="#651C89"/>
<stop offset="0.757813" stop-color="#661B89"/>
<stop offset="0.761719" stop-color="#661B89"/>
<stop offset="0.765625" stop-color="#671B89"/>
<stop offset="0.769531" stop-color="#681A88"/>
<stop offset="0.773438" stop-color="#681A88"/>
<stop offset="0.777344" stop-color="#691A88"/>
<stop offset="0.78125" stop-color="#691988"/>
<stop offset="0.785156" stop-color="#6A1987"/>
<stop offset="0.789062" stop-color="#6B1987"/>
<stop offset="0.792969" stop-color="#6B1887"/>
<stop offset="0.796875" stop-color="#6C1887"/>
<stop offset="0.800781" stop-color="#6D1787"/>
<stop offset="0.804688" stop-color="#6D1786"/>
<stop offset="0.808594" stop-color="#6E1786"/>
<stop offset="0.8125" stop-color="#6F1686"/>
<stop offset="0.816406" stop-color="#6F1686"/>
<stop offset="0.820312" stop-color="#701686"/>
<stop offset="0.824219" stop-color="#701585"/>
<stop offset="0.828125" stop-color="#711585"/>
<stop offset="0.832031" stop-color="#721485"/>
<stop offset="0.835938" stop-color="#721485"/>
<stop offset="0.839844" stop-color="#731485"/>
<stop offset="0.84375" stop-color="#741384"/>
<stop offset="0.847656" stop-color="#741384"/>
<stop offset="0.851562" stop-color="#751384"/>
<stop offset="0.855469" stop-color="#751284"/>
<stop offset="0.859375" stop-color="#761284"/>
<stop offset="0.863281" stop-color="#771183"/>
<stop offset="0.867188" stop-color="#771183"/>
<stop offset="0.871094" stop-color="#781183"/>
<stop offset="0.875" stop-color="#791083"/>
<stop offset="0.878906" stop-color="#791083"/>
<stop offset="0.882812" stop-color="#7A1082"/>
<stop offset="0.886719" stop-color="#7A0F82"/>
<stop offset="0.890625" stop-color="#7B0F82"/>
<stop offset="0.898438" stop-color="#7C0F82"/>
<stop offset="0.90625" stop-color="#7C0F82"/>
<stop offset="0.914062" stop-color="#7D0F82"/>
<stop offset="0.921875" stop-color="#7E0F82"/>
<stop offset="0.929688" stop-color="#7F0E82"/>
<stop offset="0.9375" stop-color="#800E82"/>
<stop offset="0.945312" stop-color="#810E82"/>
<stop offset="0.953125" stop-color="#820E81"/>
<stop offset="0.960938" stop-color="#830E81"/>
<stop offset="0.96875" stop-color="#840E81"/>
<stop offset="0.976562" stop-color="#850D81"/>
<stop offset="0.984375" stop-color="#860D81"/>
<stop offset="0.992188" stop-color="#870D81"/>
<stop offset="1" stop-color="#870D81"/>
</linearGradient>
</defs>
</svg>
