<svg width="135" height="32" viewBox="0 0 135 32" fill="none" xmlns="http://www.w3.org/2000/svg">
<path d="M132.972 8.35841L132.743 7.98419C132.724 7.98419 132.705 7.98419 132.685 7.98419H132.392V8.35459H132.183V7.125H132.689C133.006 7.125 133.192 7.27774 133.192 7.54505C133.192 7.74362 133.099 7.88109 132.933 7.94218L133.211 8.35459L132.972 8.35841ZM132.689 7.8009C132.883 7.8009 132.991 7.7207 132.991 7.55269C132.991 7.3923 132.879 7.31211 132.689 7.31211H132.395V7.79708L132.689 7.8009Z" fill="url(#paint0_linear_3341_5968)"/>
<path d="M132.685 9.21002C131.889 9.21002 131.243 8.57231 131.243 7.78567C131.243 6.99904 131.889 6.36133 132.685 6.36133C133.482 6.36133 134.128 6.99904 134.128 7.78567C134.128 8.56849 133.482 9.21002 132.685 9.21002ZM132.685 6.64009C132.047 6.64009 131.529 7.15178 131.529 7.78185C131.529 8.41192 132.047 8.92362 132.685 8.92362C133.323 8.92362 133.842 8.41192 133.842 7.78185C133.842 7.15178 133.323 6.64009 132.685 6.64009Z" fill="url(#paint1_linear_3341_5968)"/>
<path d="M51.0612 24.1602L51.5445 25.6761L52.024 24.1602H52.2251L52.7084 25.6761L53.1879 24.1602H53.3967L52.8051 25.9014H52.6002L52.1245 24.4275L51.6451 25.9014H51.4401L50.8524 24.1602H51.0612Z" fill="#262626"/>
<path d="M55.6356 24.1602L56.1189 25.6761L56.5984 24.1602H56.7995L57.2828 25.6761L57.7623 24.1602H57.9711L57.3795 25.9014H57.1746L56.6989 24.4275L56.2195 25.9014H56.0145L55.4268 24.1602H55.6356Z" fill="#262626"/>
<path d="M60.21 24.1602L60.6934 25.6761L61.1729 24.1602H61.3739L61.8573 25.6761L62.3368 24.1602H62.5456L61.954 25.9014H61.749L61.2734 24.4275L60.7939 25.9014H60.589L60.0012 24.1602H60.21Z" fill="#262626"/>
<path d="M64.9159 25.794C64.9159 25.8665 64.8618 25.92 64.796 25.92C64.7264 25.92 64.6723 25.8665 64.6723 25.794C64.6723 25.7214 64.7264 25.668 64.796 25.668C64.8618 25.668 64.9159 25.7214 64.9159 25.794Z" fill="#262626"/>
<path d="M68.4386 25.4547H67.4796L67.2824 25.9014H67.0697L67.8624 24.1602H68.0712L68.86 25.9014H68.6396L68.4386 25.4547ZM68.3573 25.2714L67.9552 24.374L67.5608 25.2714H68.3573Z" fill="#262626"/>
<path d="M71.8568 24.3356C71.4585 24.3356 71.1376 24.6411 71.1376 25.0268C71.1376 25.4087 71.4585 25.7218 71.8568 25.7218C72.0502 25.7218 72.2396 25.6416 72.3788 25.5118L72.5026 25.6454C72.3286 25.8058 72.0927 25.9089 71.8491 25.9089C71.3387 25.9089 70.9365 25.5194 70.9365 25.0268C70.9365 24.538 71.3464 24.1523 71.8568 24.1523C72.1004 24.1523 72.3324 24.2478 72.5026 24.4082L72.3827 24.5533C72.2435 24.4196 72.054 24.3356 71.8568 24.3356Z" fill="#262626"/>
<path d="M76.0329 25.9014L75.6617 25.3439C75.6269 25.3477 75.5882 25.3477 75.5496 25.3477H75.0817V25.9014H74.8806V24.1602H75.5496C75.9904 24.1602 76.2456 24.374 76.2456 24.7444C76.2456 25.0308 76.1025 25.2255 75.8473 25.3057L76.2649 25.9014H76.0329ZM75.5496 25.1645C75.8705 25.1645 76.0523 25.0232 76.0523 24.7482C76.0523 24.4809 75.8705 24.3434 75.5496 24.3434H75.0817V25.1645H75.5496Z" fill="#262626"/>
<path d="M79.4164 25.7258C79.7528 25.7258 79.9539 25.5272 79.9539 25.1835V24.1602H80.1549V25.1835C80.1549 25.638 79.8765 25.9091 79.4164 25.9091C78.9524 25.9091 78.674 25.6418 78.674 25.1835V24.1602H78.875V25.1835C78.875 25.5272 79.08 25.7258 79.4164 25.7258Z" fill="#262626"/>
<path d="M82.7302 24.1602L83.2175 24.8399L83.7085 24.1602H83.9444L83.3451 24.9964L83.9947 25.9014H83.7511L83.2136 25.1683L82.68 25.9014H82.4441L83.0898 25.0041L82.4866 24.1602H82.7302Z" fill="#262626"/>
<path d="M87.0456 24.3356C86.6473 24.3356 86.3264 24.6411 86.3264 25.0268C86.3264 25.4087 86.6473 25.7218 87.0456 25.7218C87.2389 25.7218 87.4284 25.6416 87.5676 25.5118L87.6914 25.6454C87.5174 25.8058 87.2815 25.9089 87.0379 25.9089C86.5275 25.9089 86.1253 25.5194 86.1253 25.0268C86.1253 24.538 86.5352 24.1523 87.0456 24.1523C87.2892 24.1523 87.5212 24.2478 87.6914 24.4082L87.5715 24.5533C87.4323 24.4196 87.2389 24.3356 87.0456 24.3356Z" fill="#262626"/>
<path d="M91.1715 25.4547H90.2125L90.0153 25.9014H89.8026L90.5953 24.1602H90.8041L91.5929 25.9014H91.3725L91.1715 25.4547ZM91.0903 25.2714L90.6881 24.374L90.2937 25.2714H91.0903Z" fill="#262626"/>
<path d="M95.2316 24.7444C95.2316 25.1263 94.9803 25.3477 94.5433 25.3477H94.0832V25.9014H93.8821V24.1602H94.5433C94.9764 24.1602 95.2316 24.374 95.2316 24.7444ZM95.0344 24.7482C95.0344 24.4809 94.8488 24.3434 94.5317 24.3434H94.0793V25.1645H94.5317C94.8526 25.1645 95.0344 25.0232 95.0344 24.7482Z" fill="#262626"/>
<path d="M97.7798 24.1602V25.9014H97.5788V24.1602H97.7798Z" fill="#262626"/>
<path d="M101.442 24.1602V24.3434H100.866V25.9014H100.664V24.3434H100.088V24.1602H101.442Z" fill="#262626"/>
<path d="M104.694 25.4547H103.735L103.538 25.9014H103.325L104.118 24.1602H104.326L105.115 25.9014H104.895L104.694 25.4547ZM104.612 25.2714L104.21 24.374L103.816 25.2714H104.612Z" fill="#262626"/>
<path d="M107.601 24.1602V25.7182H108.375V25.9014H107.4V24.1602H107.601Z" fill="#262626"/>
<path d="M110.823 25.794C110.823 25.8665 110.768 25.92 110.703 25.92C110.633 25.92 110.579 25.8665 110.579 25.794C110.579 25.7214 110.633 25.668 110.703 25.668C110.768 25.668 110.823 25.7214 110.823 25.794Z" fill="#262626"/>
<path d="M113.985 24.3356C113.587 24.3356 113.266 24.6411 113.266 25.0268C113.266 25.4087 113.587 25.7218 113.985 25.7218C114.179 25.7218 114.368 25.6416 114.507 25.5118L114.631 25.6454C114.457 25.8058 114.221 25.9089 113.978 25.9089C113.467 25.9089 113.065 25.5194 113.065 25.0268C113.065 24.538 113.475 24.1523 113.985 24.1523C114.229 24.1523 114.461 24.2478 114.631 24.4082L114.511 24.5533C114.372 24.4196 114.179 24.3356 113.985 24.3356Z" fill="#262626"/>
<path d="M118.645 25.0307C118.645 25.5195 118.239 25.909 117.725 25.909C117.21 25.909 116.801 25.5195 116.801 25.0307C116.801 24.5419 117.21 24.1562 117.725 24.1562C118.235 24.1562 118.645 24.5419 118.645 25.0307ZM117.002 25.0307C117.002 25.4164 117.33 25.7257 117.721 25.7257C118.115 25.7257 118.436 25.4164 118.436 25.0307C118.436 24.645 118.115 24.3395 117.721 24.3395C117.33 24.3395 117.002 24.645 117.002 25.0307Z" fill="#262626"/>
<path d="M121.275 24.1602L121.92 25.4241L122.562 24.1602H122.81V25.9014H122.624L122.62 24.4542L121.978 25.7182H121.858L121.217 24.4542V25.9014H121.023V24.1602H121.275Z" fill="#262626"/>
<path d="M42.8906 19.7723H40.412L48.0296 6.82719C48.1843 6.5637 48.4665 6.40332 48.772 6.40332H50.2221C50.5353 6.40332 50.8253 6.57516 50.9761 6.84628L58.1065 19.7685H55.6742L49.4332 8.51883L42.8906 19.7723Z" fill="url(#paint2_linear_3341_5968)"/>
<path d="M76.2069 14.6133C75.9826 16.2896 75.1087 17.6262 73.5891 18.6266C72.0694 19.6271 70.1399 20.1274 67.8005 20.1274C65.0125 20.1274 62.8046 19.4935 61.1767 18.2295C59.5487 16.9655 58.7328 15.2548 58.7328 13.0973C58.7328 10.9398 59.5487 9.22902 61.1805 7.96124C62.8123 6.69346 65.028 6.05957 67.8198 6.05957C70.1128 6.05957 72.0076 6.5369 73.5079 7.49155C75.0043 8.44621 75.8396 9.70253 76.0136 11.2643H73.5814C73.3493 10.1913 72.7229 9.35504 71.6982 8.74788C70.6735 8.14072 69.3743 7.83905 67.7966 7.83905C65.7124 7.83905 64.0845 8.30492 62.9167 9.23284C61.749 10.1608 61.1612 11.4515 61.1612 13.1011C61.1612 14.7469 61.749 16.0338 62.9206 16.9617C64.0922 17.8896 65.7279 18.3517 67.8198 18.3517C69.4245 18.3517 70.7702 18.0118 71.849 17.3359C72.9279 16.6562 73.5698 15.7512 73.7708 14.6209H76.2069V14.6133Z" fill="url(#paint3_linear_3341_5968)"/>
<path d="M78.933 19.7724V7.25496C78.933 6.78527 79.3197 6.40723 79.7915 6.40723H87.6488C89.5706 6.40723 91.0284 6.71653 92.0299 7.33897C93.0314 7.9614 93.5302 8.86641 93.5302 10.0578C93.5302 10.9132 93.2943 11.612 92.8187 12.1542C92.3431 12.6965 91.6316 13.0898 90.6842 13.3304C91.5195 13.4335 92.1343 13.6817 92.5287 14.0712C92.9193 14.4645 93.1551 15.064 93.2286 15.8698L93.4297 18.0311C93.4838 18.5313 93.5534 18.8979 93.6423 19.1347C93.7313 19.3714 93.8628 19.5853 94.0329 19.7762H91.2991C91.2179 19.6273 91.1521 19.444 91.1096 19.234C91.0632 19.0239 91.0284 18.7414 90.9975 18.3862L90.7964 16.4082C90.6997 15.4879 90.4174 14.8616 89.9496 14.5332C89.4817 14.2048 88.6542 14.0406 87.4671 14.0406H81.2493V19.78H78.933V19.7724ZM86.5313 8.0225H81.2531V12.3872H86.7324C88.3912 12.3872 89.5474 12.223 90.2048 11.8908C90.8621 11.5585 91.1908 10.9972 91.1908 10.1991C91.1908 9.39338 90.866 8.82823 90.2164 8.50365C89.5667 8.1867 88.3371 8.0225 86.5313 8.0225Z" fill="url(#paint4_linear_3341_5968)"/>
<path d="M111.646 6.40723V14.7929C111.646 16.5342 111.024 17.8593 109.778 18.7643C108.533 19.6693 106.712 20.1237 104.315 20.1237C101.917 20.1237 100.096 19.6693 98.8548 18.7643C97.6135 17.8593 96.9948 16.5342 96.9948 14.7929V6.40723H98.4758C98.9514 6.40723 99.3343 6.78909 99.3343 7.25496V13.9986C99.3343 15.4764 99.7364 16.5609 100.545 17.2597C101.353 17.9585 102.606 18.3099 104.311 18.3099C106.02 18.3099 107.281 17.9624 108.089 17.2674C108.897 16.5724 109.299 15.4841 109.299 13.9986V7.25496C109.299 6.78527 109.686 6.40723 110.157 6.40723H111.646Z" fill="url(#paint5_linear_3341_5968)"/>
<path d="M113.707 19.7723L120.521 12.9217L114.38 6.40714H116.932C117.176 6.40714 117.408 6.51024 117.57 6.6859L121.944 11.4744L126.955 6.40332H129.778L123.301 12.9026L129.96 19.7723H127.353C127.114 19.7723 126.885 19.673 126.723 19.5012L121.835 14.2811L116.723 19.7761H113.707V19.7723Z" fill="url(#paint6_linear_3341_5968)"/>
<path d="M32.3883 31.5493L27.4698 13.4147C27.3654 13.0252 26.7892 13.0786 26.7583 13.4834L25.9037 25.2524C25.8921 25.428 25.749 25.5693 25.5673 25.5846L13.6498 26.4247C13.2438 26.4552 13.1897 27.0204 13.5802 27.1273L31.9436 31.9884C32.2143 32.0571 32.4618 31.8127 32.3883 31.5493Z" fill="url(#paint7_linear_3341_5968)"/>
<path d="M28.305 2.0581C28.2199 1.96645 28.0884 1.92063 27.9492 1.95882L9.58194 6.8161C9.18753 6.9192 9.24166 7.48817 9.65155 7.51872L21.569 8.36264C21.6464 8.36646 21.716 8.397 21.7701 8.44283" fill="url(#paint8_linear_3341_5968)"/>
<path d="M21.7699 8.44234C21.8434 8.50344 21.8936 8.59127 21.9014 8.69437L22.7559 20.4633C22.7869 20.8643 23.3592 20.9178 23.4674 20.5321L28.3899 2.39366C28.4247 2.26382 28.386 2.14163 28.3048 2.05762L21.7699 8.44234Z" fill="url(#paint9_linear_3341_5968)"/>
<path d="M2.06854 27.9375C2.15361 28.0291 2.28508 28.0749 2.42429 28.0367L20.7916 23.1795C21.186 23.0764 21.1319 22.5074 20.722 22.4768L8.80451 21.6329C8.72717 21.6291 8.65757 21.5986 8.60343 21.5527" fill="url(#paint10_linear_3341_5968)"/>
<path d="M8.60365 21.5523C8.53019 21.4912 8.47992 21.4034 8.47218 21.3003L7.61762 9.53132C7.58669 9.13037 7.0144 9.07691 6.90613 9.46259L1.9837 27.5972C1.94889 27.727 1.98756 27.8492 2.06876 27.9332L8.60365 21.5523Z" fill="url(#paint11_linear_3341_5968)"/>
<path d="M0.0927865 0.0800781C0.0193174 0.144995 -0.0193506 0.251916 0.0115838 0.362656L3.95959 14.9078C4.04465 15.2209 4.5048 15.1751 4.52801 14.8543L5.21243 5.41468C5.21629 5.35359 5.2395 5.30013 5.27816 5.2543" fill="url(#paint12_linear_3341_5968)"/>
<path d="M5.27821 5.25424C5.32848 5.19314 5.39808 5.15495 5.48315 5.15113L15.0419 4.47524C15.3667 4.45233 15.4131 3.99791 15.096 3.9139L0.367377 0.0112776C0.259107 -0.0192713 0.15857 0.0150962 0.0928345 0.0800127L5.27821 5.25424Z" fill="url(#paint13_linear_3341_5968)"/>
<path d="M32.2878 31.9006C32.3806 31.8166 32.427 31.6867 32.3883 31.5493L27.4698 13.4147C27.3654 13.0252 26.7892 13.0786 26.7583 13.4834L25.9037 25.2524C25.8998 25.3287 25.8689 25.3975 25.8225 25.4509" fill="url(#paint14_linear_3341_5968)"/>
<path d="M25.8225 25.4512C25.7606 25.5237 25.6717 25.5734 25.5673 25.581L13.6498 26.4249C13.2438 26.4555 13.1897 27.0206 13.5802 27.1275L31.9436 31.9886C32.0751 32.023 32.1989 31.9848 32.2839 31.9046L25.8225 25.4512Z" fill="url(#paint15_linear_3341_5968)"/>
<defs>
<linearGradient id="paint0_linear_3341_5968" x1="132.697" y1="21.6103" x2="132.697" y2="9.00315" gradientUnits="userSpaceOnUse">
<stop stop-color="#13017C"/>
<stop offset="1" stop-color="#2E58A6"/>
</linearGradient>
<linearGradient id="paint1_linear_3341_5968" x1="132.684" y1="21.6104" x2="132.684" y2="9.0032" gradientUnits="userSpaceOnUse">
<stop stop-color="#13017C"/>
<stop offset="1" stop-color="#2E58A6"/>
</linearGradient>
<linearGradient id="paint2_linear_3341_5968" x1="49.3235" y1="18.5086" x2="49.8264" y2="8.15526" gradientUnits="userSpaceOnUse">
<stop stop-color="#13017C"/>
<stop offset="1" stop-color="#2E58A6"/>
</linearGradient>
<linearGradient id="paint3_linear_3341_5968" x1="67.1917" y1="19.3763" x2="67.6946" y2="9.023" gradientUnits="userSpaceOnUse">
<stop stop-color="#13017C"/>
<stop offset="1" stop-color="#2E58A6"/>
</linearGradient>
<linearGradient id="paint4_linear_3341_5968" x1="86.1468" y1="20.2971" x2="86.6496" y2="9.94375" gradientUnits="userSpaceOnUse">
<stop stop-color="#13017C"/>
<stop offset="1" stop-color="#2E58A6"/>
</linearGradient>
<linearGradient id="paint5_linear_3341_5968" x1="103.8" y1="21.1545" x2="104.303" y2="10.8011" gradientUnits="userSpaceOnUse">
<stop stop-color="#13017C"/>
<stop offset="1" stop-color="#2E58A6"/>
</linearGradient>
<linearGradient id="paint6_linear_3341_5968" x1="121.721" y1="22.0247" x2="122.223" y2="11.6714" gradientUnits="userSpaceOnUse">
<stop stop-color="#13017C"/>
<stop offset="1" stop-color="#2E58A6"/>
</linearGradient>
<linearGradient id="paint7_linear_3341_5968" x1="29.6808" y1="15.0109" x2="19.1459" y2="37.4926" gradientUnits="userSpaceOnUse">
<stop stop-color="#13017C"/>
<stop offset="1" stop-color="#2E58A6"/>
</linearGradient>
<linearGradient id="paint8_linear_3341_5968" x1="23.945" y1="3.80592" x2="13.334" y2="8.83479" gradientUnits="userSpaceOnUse">
<stop stop-color="#13017C"/>
<stop offset="1" stop-color="#2E58A6"/>
</linearGradient>
<linearGradient id="paint9_linear_3341_5968" x1="26.1707" y1="17.6032" x2="24.9617" y2="4.5033" gradientUnits="userSpaceOnUse">
<stop stop-color="#13017C"/>
<stop offset="1" stop-color="#2E58A6"/>
</linearGradient>
<linearGradient id="paint10_linear_3341_5968" x1="6.42001" y1="26.189" x2="17.0309" y2="21.1602" gradientUnits="userSpaceOnUse">
<stop stop-color="#13017C"/>
<stop offset="1" stop-color="#2E58A6"/>
</linearGradient>
<linearGradient id="paint11_linear_3341_5968" x1="4.19434" y1="12.3907" x2="5.40299" y2="25.4907" gradientUnits="userSpaceOnUse">
<stop stop-color="#13017C"/>
<stop offset="1" stop-color="#2E58A6"/>
</linearGradient>
<linearGradient id="paint12_linear_3341_5968" x1="1.51095" y1="3.53131" x2="5.43093" y2="12.0125" gradientUnits="userSpaceOnUse">
<stop stop-color="#13017C"/>
<stop offset="1" stop-color="#2E58A6"/>
</linearGradient>
<linearGradient id="paint13_linear_3341_5968" x1="12.718" y1="1.7681" x2="2.08249" y2="2.77462" gradientUnits="userSpaceOnUse">
<stop stop-color="#13017C"/>
<stop offset="1" stop-color="#2E58A6"/>
</linearGradient>
<linearGradient id="paint14_linear_3341_5968" x1="25.8225" y1="22.5243" x2="32.4023" y2="22.5243" gradientUnits="userSpaceOnUse">
<stop stop-color="#5B000B"/>
<stop offset="1" stop-color="#D90000"/>
</linearGradient>
<linearGradient id="paint15_linear_3341_5968" x1="13.3146" y1="28.7241" x2="32.2883" y2="28.7241" gradientUnits="userSpaceOnUse">
<stop stop-color="#5B000B"/>
<stop offset="1" stop-color="#D90000"/>
</linearGradient>
</defs>
</svg>
