<svg width="389" height="117" viewBox="0 0 389 117" fill="none" xmlns="http://www.w3.org/2000/svg">
<mask id="mask0_327_8" style="mask-type:luminance" maskUnits="userSpaceOnUse" x="2" y="1" width="114" height="114">
<path d="M2.8125 1.45312H115.813V114.453H2.8125V1.45312Z" fill="white"/>
</mask>
<g mask="url(#mask0_327_8)">
<mask id="mask1_327_8" style="mask-type:luminance" maskUnits="userSpaceOnUse" x="2" y="1" width="114" height="114">
<path d="M75.0677 88.3125C72.2188 92.6354 67.875 94.0469 64.4896 94.0469C61.4427 94.0469 58.3594 92.9375 55.9375 90.6927L19.6042 57.099C14.4896 52.3698 14.1771 44.401 18.9063 39.2917C23.625 34.1875 31.599 33.8698 36.7135 38.6042L62.0625 62.0365L101.37 1.45312H15.375C8.44271 1.45312 2.8125 7.07813 2.8125 14.0052V101.896C2.8125 108.828 8.4375 114.453 15.375 114.453H103.266C110.193 114.453 115.813 108.828 115.813 101.896V25.5052C98.0833 52.8438 76.0625 86.7917 75.0677 88.3125Z" fill="white"/>
</mask>
<g mask="url(#mask1_327_8)">
<path d="M2.8125 1.45312V114.453H115.813V1.45312H2.8125Z" fill="url(#paint0_linear_327_8)"/>
</g>
</g>
<mask id="mask2_327_8" style="mask-type:luminance" maskUnits="userSpaceOnUse" x="2" y="1" width="114" height="114">
<path d="M2.8125 1.45312H115.813V114.453H2.8125V1.45312Z" fill="white"/>
</mask>
<g mask="url(#mask2_327_8)">
<path d="M75.0677 88.3125C72.2188 92.6354 67.875 94.0469 64.4896 94.0469C61.4427 94.0469 58.3594 92.9375 55.9375 90.6927L19.6042 57.099C14.4896 52.3698 14.1771 44.401 18.9063 39.2917C23.625 34.1875 31.599 33.8698 36.7135 38.6042L62.0625 62.0365L101.37 1.45312H15.375C8.44271 1.45312 2.8125 7.07813 2.8125 14.0052V101.896C2.8125 108.828 8.4375 114.453 15.375 114.453H103.266C110.193 114.453 115.813 108.828 115.813 101.896V25.5052C98.0833 52.8438 76.0625 86.7917 75.0677 88.3125Z" fill="black" fill-opacity="0.2"/>
<path d="M75.0677 88.3125C72.2188 92.6354 67.875 94.0469 64.4896 94.0469C61.4427 94.0469 58.3594 92.9375 55.9375 90.6927L19.6042 57.099C14.4896 52.3698 14.1771 44.401 18.9063 39.2917C23.625 34.1875 31.599 33.8698 36.7135 38.6042L62.0625 62.0365L101.37 1.45312H15.375C8.44271 1.45312 2.8125 7.07813 2.8125 14.0052V101.896C2.8125 108.828 8.4375 114.453 15.375 114.453H103.266C110.193 114.453 115.813 108.828 115.813 101.896V25.5052C98.0833 52.8438 76.0625 86.7917 75.0677 88.3125Z" fill="#479AB9"/>
</g>
<path d="M146.215 48.2559C144.018 48.2559 142.049 47.9017 140.299 47.1934C138.559 46.485 137.174 45.4382 136.132 44.0475C135.09 42.6465 134.538 40.959 134.486 38.985H142.278C142.387 40.0996 142.768 40.9434 143.424 41.5267C144.09 42.11 144.945 42.4017 145.986 42.4017C147.07 42.4017 147.924 42.1517 148.549 41.6517C149.184 41.1517 149.507 40.4642 149.507 39.5892C149.507 38.8392 149.257 38.2246 148.757 37.735C148.257 37.2507 147.637 36.8548 146.903 36.5475C146.179 36.2298 145.153 35.8757 143.82 35.485C141.872 34.8757 140.288 34.2715 139.07 33.6725C137.846 33.0788 136.788 32.1934 135.903 31.0267C135.012 29.86 134.57 28.334 134.57 26.4434C134.57 23.6517 135.58 21.4642 137.611 19.8809C139.637 18.2975 142.278 17.5059 145.528 17.5059C148.83 17.5059 151.497 18.2975 153.528 19.8809C155.554 21.4642 156.637 23.6673 156.778 26.485H148.861C148.804 25.5267 148.445 24.7715 147.778 24.2142C147.122 23.6621 146.288 23.3809 145.278 23.3809C144.387 23.3809 143.674 23.6204 143.132 24.0892C142.59 24.5475 142.32 25.2246 142.32 26.11C142.32 27.084 142.768 27.8392 143.674 28.3809C144.59 28.9225 146.018 29.5059 147.965 30.1309C149.908 30.7871 151.486 31.4121 152.695 32.0059C153.903 32.6048 154.945 33.4798 155.82 34.6309C156.705 35.7715 157.153 37.235 157.153 39.0267C157.153 40.735 156.715 42.2923 155.84 43.6934C154.976 45.084 153.721 46.1934 152.07 47.0267C150.413 47.8496 148.465 48.2559 146.215 48.2559Z" fill="#4165ED"/>
<path d="M160.184 35.985C160.184 33.5423 160.647 31.3965 161.579 29.5475C162.507 27.6882 163.772 26.2559 165.371 25.2559C166.965 24.2559 168.751 23.7559 170.725 23.7559C172.402 23.7559 173.876 24.1048 175.142 24.7975C176.402 25.4798 177.382 26.3757 178.079 27.485V24.0892H185.392V47.9642H178.079V44.5892C177.355 45.7038 176.361 46.5996 175.1 47.2767C173.835 47.959 172.355 48.2975 170.663 48.2975C168.73 48.2975 166.965 47.7975 165.371 46.7975C163.772 45.7871 162.507 44.3496 161.579 42.485C160.647 40.61 160.184 38.4434 160.184 35.985ZM178.079 36.0267C178.079 34.209 177.569 32.7715 176.559 31.7142C175.543 30.6621 174.309 30.1309 172.85 30.1309C171.392 30.1309 170.152 30.6517 169.142 31.6934C168.142 32.735 167.642 34.1673 167.642 35.985C167.642 37.8184 168.142 39.2715 169.142 40.3392C170.152 41.4121 171.392 41.9434 172.85 41.9434C174.309 41.9434 175.543 41.4173 176.559 40.36C177.569 39.3079 178.079 37.86 178.079 36.0267Z" fill="#4165ED"/>
<path d="M194.367 21.6107C193.076 21.6107 192.018 21.2357 191.201 20.4857C190.393 19.7357 189.992 18.7982 189.992 17.6732C189.992 16.5378 190.393 15.5898 191.201 14.8398C192.018 14.0898 193.076 13.7148 194.367 13.7148C195.617 13.7148 196.643 14.0898 197.451 14.8398C198.268 15.5898 198.68 16.5378 198.68 17.6732C198.68 18.7982 198.268 19.7357 197.451 20.4857C196.643 21.2357 195.617 21.6107 194.367 21.6107ZM197.992 24.0898V47.9648H190.68V24.0898H197.992Z" fill="#4165ED"/>
<path d="M226.859 24.0898V47.9648H219.546V44.7148C218.807 45.7721 217.801 46.6211 216.525 47.2565C215.26 47.8971 213.859 48.2148 212.317 48.2148C210.494 48.2148 208.885 47.8138 207.484 47.0065C206.093 46.1888 205.01 45.0169 204.234 43.4857C203.468 41.944 203.088 40.1315 203.088 38.0482V24.0898H210.359V37.0482C210.359 38.6471 210.765 39.8919 211.588 40.7773C212.421 41.668 213.536 42.1107 214.942 42.1107C216.359 42.1107 217.473 41.668 218.296 40.7773C219.13 39.8919 219.546 38.6471 219.546 37.0482V24.0898H226.859Z" fill="#4165ED"/>
<path d="M230.662 35.985C230.662 33.5423 231.126 31.3965 232.058 29.5475C232.985 27.6882 234.251 26.2559 235.85 25.2559C237.443 24.2559 239.23 23.7559 241.204 23.7559C242.881 23.7559 244.355 24.1048 245.62 24.7975C246.881 25.4798 247.86 26.3757 248.558 27.485V24.0892H255.87V47.9642H248.558V44.5892C247.834 45.7038 246.839 46.5996 245.579 47.2767C244.313 47.959 242.834 48.2975 241.141 48.2975C239.209 48.2975 237.443 47.7975 235.85 46.7975C234.251 45.7871 232.985 44.3496 232.058 42.485C231.126 40.61 230.662 38.4434 230.662 35.985ZM248.558 36.0267C248.558 34.209 248.048 32.7715 247.037 31.7142C246.021 30.6621 244.787 30.1309 243.329 30.1309C241.87 30.1309 240.631 30.6517 239.62 31.6934C238.62 32.735 238.12 34.1673 238.12 35.985C238.12 37.8184 238.62 39.2715 239.62 40.3392C240.631 41.4121 241.87 41.9434 243.329 41.9434C244.787 41.9434 246.021 41.4173 247.037 40.36C248.048 39.3079 248.558 37.86 248.558 36.0267Z" fill="#4165ED"/>
<path d="M259.699 36.0267C259.699 33.5579 260.204 31.3965 261.22 29.5475C262.23 27.6882 263.642 26.2559 265.449 25.2559C267.267 24.2559 269.345 23.7559 271.678 23.7559C274.678 23.7559 277.178 24.5423 279.178 26.11C281.189 27.6829 282.517 29.8913 283.158 32.735H275.366C274.71 30.9173 273.439 30.0059 271.553 30.0059C270.22 30.0059 269.147 30.5267 268.345 31.5684C267.553 32.61 267.158 34.0996 267.158 36.0267C267.158 37.9746 267.553 39.4642 268.345 40.5059C269.147 41.5475 270.22 42.0684 271.553 42.0684C273.439 42.0684 274.71 41.1517 275.366 39.3184H283.158C282.517 42.11 281.184 44.3079 279.158 45.9017C277.142 47.5007 274.647 48.2975 271.678 48.2975C269.345 48.2975 267.267 47.8079 265.449 46.8184C263.642 45.8184 262.23 44.3965 261.22 42.5475C260.204 40.6882 259.699 38.5163 259.699 36.0267Z" fill="#4165ED"/>
<path d="M297.906 48.2975C295.557 48.2975 293.447 47.8079 291.572 46.8184C289.708 45.8184 288.244 44.3965 287.176 42.5475C286.104 40.6882 285.572 38.5163 285.572 36.0267C285.572 33.584 286.114 31.4329 287.197 29.5684C288.291 27.6934 289.781 26.2559 291.656 25.2559C293.541 24.2559 295.656 23.7559 297.989 23.7559C300.322 23.7559 302.426 24.2559 304.301 25.2559C306.187 26.2559 307.676 27.6934 308.76 29.5684C309.843 31.4329 310.385 33.584 310.385 36.0267C310.385 38.485 309.833 40.6517 308.739 42.5267C307.64 44.3913 306.14 45.8184 304.239 46.8184C302.348 47.8079 300.239 48.2975 297.906 48.2975ZM297.906 41.985C299.291 41.985 300.479 41.4746 301.468 40.4434C302.452 39.4173 302.947 37.9434 302.947 36.0267C302.947 34.1257 302.468 32.6621 301.51 31.6309C300.551 30.6048 299.374 30.0892 297.989 30.0892C296.557 30.0892 295.369 30.5996 294.426 31.61C293.494 32.6257 293.031 34.0996 293.031 36.0267C293.031 37.9434 293.489 39.4173 294.406 40.4434C295.333 41.4746 296.499 41.985 297.906 41.985Z" fill="#4165ED"/>
<path d="M321.586 28.069C322.445 26.7669 323.513 25.7357 324.794 24.9857C326.086 24.2253 327.513 23.8398 329.086 23.8398V31.5898H327.065C325.242 31.5898 323.878 31.9857 322.961 32.7773C322.044 33.5586 321.586 34.9232 321.586 36.8815V47.9648H314.273V24.0898H321.586V28.069Z" fill="#4165ED"/>
<path d="M331.117 35.985C331.117 33.5423 331.581 31.3965 332.513 29.5475C333.44 27.6882 334.706 26.2559 336.305 25.2559C337.898 24.2559 339.685 23.7559 341.659 23.7559C343.211 23.7559 344.638 24.084 345.93 24.735C347.232 25.3913 348.263 26.2767 349.013 27.4017V16.3184H356.326V47.9642H349.013V44.5475C348.315 45.6882 347.336 46.5996 346.076 47.2767C344.81 47.959 343.336 48.2975 341.659 48.2975C339.685 48.2975 337.898 47.7975 336.305 46.7975C334.706 45.7871 333.44 44.3496 332.513 42.485C331.581 40.61 331.117 38.4434 331.117 35.985ZM349.013 36.0267C349.013 34.209 348.503 32.7715 347.492 31.7142C346.477 30.6621 345.242 30.1309 343.784 30.1309C342.326 30.1309 341.086 30.6517 340.076 31.6934C339.076 32.735 338.576 34.1673 338.576 35.985C338.576 37.8184 339.076 39.2715 340.076 40.3392C341.086 41.4121 342.326 41.9434 343.784 41.9434C345.242 41.9434 346.477 41.4173 347.492 40.36C348.503 39.3079 349.013 37.86 349.013 36.0267Z" fill="#4165ED"/>
<path d="M372.49 48.2975C370.141 48.2975 368.031 47.8079 366.156 46.8184C364.292 45.8184 362.828 44.3965 361.76 42.5475C360.687 40.6882 360.156 38.5163 360.156 36.0267C360.156 33.584 360.698 31.4329 361.781 29.5684C362.875 27.6934 364.365 26.2559 366.24 25.2559C368.125 24.2559 370.24 23.7559 372.573 23.7559C374.906 23.7559 377.01 24.2559 378.885 25.2559C380.771 26.2559 382.26 27.6934 383.344 29.5684C384.427 31.4329 384.969 33.584 384.969 36.0267C384.969 38.485 384.417 40.6517 383.323 42.5267C382.224 44.3913 380.724 45.8184 378.823 46.8184C376.932 47.8079 374.823 48.2975 372.49 48.2975ZM372.49 41.985C373.875 41.985 375.062 41.4746 376.052 40.4434C377.036 39.4173 377.531 37.9434 377.531 36.0267C377.531 34.1257 377.052 32.6621 376.094 31.6309C375.135 30.6048 373.958 30.0892 372.573 30.0892C371.141 30.0892 369.953 30.5996 369.01 31.61C368.078 32.6257 367.615 34.0996 367.615 36.0267C367.615 37.9434 368.073 39.4173 368.99 40.4434C369.917 41.4746 371.083 41.985 372.49 41.985Z" fill="#4165ED"/>
<path d="M158.238 76.61C158.238 78.3496 157.831 79.9382 157.029 81.3809C156.238 82.8132 155.014 83.9746 153.363 84.86C151.706 85.7507 149.654 86.1934 147.196 86.1934H142.654V96.9642H135.342V66.9434H147.196C149.581 66.9434 151.602 67.36 153.258 68.1934C154.925 69.0163 156.165 70.1517 156.988 71.61C157.821 73.0579 158.238 74.7246 158.238 76.61ZM146.633 80.36C148.035 80.36 149.076 80.0371 149.758 79.3809C150.436 78.7298 150.779 77.8079 150.779 76.61C150.779 75.4173 150.436 74.4954 149.758 73.8392C149.076 73.1725 148.035 72.8392 146.633 72.8392H142.654V80.36H146.633Z" fill="#479AB9"/>
<path d="M160.568 84.985C160.568 82.5423 161.032 80.3965 161.964 78.5475C162.891 76.6882 164.157 75.2559 165.756 74.2559C167.35 73.2559 169.136 72.7559 171.11 72.7559C172.787 72.7559 174.261 73.1048 175.527 73.7975C176.787 74.4798 177.766 75.3757 178.464 76.485V73.0892H185.777V96.9642H178.464V93.5892C177.74 94.7038 176.745 95.5996 175.485 96.2767C174.219 96.959 172.74 97.2975 171.048 97.2975C169.115 97.2975 167.35 96.7975 165.756 95.7975C164.157 94.7871 162.891 93.3496 161.964 91.485C161.032 89.61 160.568 87.4434 160.568 84.985ZM178.464 85.0267C178.464 83.209 177.954 81.7715 176.943 80.7142C175.928 79.6621 174.693 79.1309 173.235 79.1309C171.777 79.1309 170.537 79.6517 169.527 80.6934C168.527 81.735 168.027 83.1673 168.027 84.985C168.027 86.8184 168.527 88.2715 169.527 89.3392C170.537 90.4121 171.777 90.9434 173.235 90.9434C174.693 90.9434 175.928 90.4173 176.943 89.36C177.954 88.3079 178.464 86.86 178.464 85.0267Z" fill="#479AB9"/>
<path d="M198.377 77.069C199.236 75.7669 200.304 74.7357 201.585 73.9857C202.877 73.2253 204.304 72.8398 205.877 72.8398V80.5898H203.856C202.033 80.5898 200.669 80.9857 199.752 81.7773C198.835 82.5586 198.377 83.9232 198.377 85.8815V96.9648H191.064V73.0898H198.377V77.069Z" fill="#479AB9"/>
<path d="M207.91 85.0267C207.91 82.5579 208.415 80.3965 209.431 78.5475C210.441 76.6882 211.853 75.2559 213.66 74.2559C215.478 73.2559 217.556 72.7559 219.889 72.7559C222.889 72.7559 225.389 73.5423 227.389 75.11C229.4 76.6829 230.728 78.8913 231.368 81.735H223.577C222.921 79.9173 221.65 79.0059 219.764 79.0059C218.431 79.0059 217.358 79.5267 216.556 80.5684C215.764 81.61 215.368 83.0996 215.368 85.0267C215.368 86.9746 215.764 88.4642 216.556 89.5059C217.358 90.5475 218.431 91.0684 219.764 91.0684C221.65 91.0684 222.921 90.1517 223.577 88.3184H231.368C230.728 91.11 229.395 93.3079 227.368 94.9017C225.353 96.5007 222.858 97.2975 219.889 97.2975C217.556 97.2975 215.478 96.8079 213.66 95.8184C211.853 94.8184 210.441 93.3965 209.431 91.5475C208.415 89.6882 207.91 87.5163 207.91 85.0267Z" fill="#479AB9"/>
<path d="M257.742 84.6517C257.742 85.334 257.7 86.0423 257.617 86.7767H241.054C241.179 88.2663 241.658 89.4017 242.492 90.1934C243.335 90.9746 244.372 91.36 245.596 91.36C247.429 91.36 248.7 90.5892 249.408 89.0475H257.179C256.788 90.6204 256.075 92.0371 255.033 93.2975C253.992 94.5475 252.684 95.5267 251.117 96.235C249.544 96.9434 247.788 97.2975 245.846 97.2975C243.512 97.2975 241.429 96.8079 239.596 95.8184C237.773 94.8184 236.351 93.3965 235.325 91.5475C234.294 89.6882 233.783 87.5163 233.783 85.0267C233.783 82.5579 234.288 80.3965 235.304 78.5475C236.314 76.6882 237.731 75.2559 239.554 74.2559C241.387 73.2559 243.481 72.7559 245.846 72.7559C248.163 72.7559 250.221 73.2454 252.012 74.2142C253.804 75.1882 255.205 76.5684 256.221 78.36C257.231 80.1517 257.742 82.2507 257.742 84.6517ZM250.262 82.7142C250.262 81.4642 249.83 80.4746 248.971 79.735C248.122 78.985 247.054 78.61 245.762 78.61C244.538 78.61 243.502 78.9746 242.658 79.6934C241.825 80.4017 241.309 81.4121 241.117 82.7142H250.262Z" fill="#479AB9"/>
<path d="M265.273 70.6107C263.982 70.6107 262.924 70.2357 262.107 69.4857C261.299 68.7357 260.898 67.7982 260.898 66.6732C260.898 65.5378 261.299 64.5898 262.107 63.8398C262.924 63.0898 263.982 62.7148 265.273 62.7148C266.523 62.7148 267.549 63.0898 268.357 63.8398C269.174 64.5898 269.586 65.5378 269.586 66.6732C269.586 67.7982 269.174 68.7357 268.357 69.4857C267.549 70.2357 266.523 70.6107 265.273 70.6107ZM268.898 73.0898V96.9648H261.586V73.0898H268.898Z" fill="#479AB9"/>
<path d="M281.514 77.069C282.373 75.7669 283.441 74.7357 284.722 73.9857C286.014 73.2253 287.441 72.8398 289.014 72.8398V80.5898H286.993C285.17 80.5898 283.805 80.9857 282.889 81.7773C281.972 82.5586 281.514 83.9232 281.514 85.8815V96.9648H274.201V73.0898H281.514V77.069Z" fill="#479AB9"/>
<path d="M303.38 97.2975C301.031 97.2975 298.922 96.8079 297.047 95.8184C295.182 94.8184 293.719 93.3965 292.651 91.5475C291.578 89.6882 291.047 87.5163 291.047 85.0267C291.047 82.584 291.589 80.4329 292.672 78.5684C293.766 76.6934 295.255 75.2559 297.13 74.2559C299.016 73.2559 301.13 72.7559 303.464 72.7559C305.797 72.7559 307.901 73.2559 309.776 74.2559C311.661 75.2559 313.151 76.6934 314.234 78.5684C315.318 80.4329 315.859 82.584 315.859 85.0267C315.859 87.485 315.307 89.6517 314.214 91.5267C313.115 93.3913 311.615 94.8184 309.714 95.8184C307.823 96.8079 305.714 97.2975 303.38 97.2975ZM303.38 90.985C304.766 90.985 305.953 90.4746 306.943 89.4434C307.927 88.4173 308.422 86.9434 308.422 85.0267C308.422 83.1257 307.943 81.6621 306.984 80.6309C306.026 79.6048 304.849 79.0892 303.464 79.0892C302.031 79.0892 300.844 79.5996 299.901 80.61C298.969 81.6257 298.505 83.0996 298.505 85.0267C298.505 86.9434 298.964 88.4173 299.88 89.4434C300.807 90.4746 301.974 90.985 303.38 90.985Z" fill="#479AB9"/>
<path d="M329.456 97.2975C327.372 97.2975 325.518 96.9434 323.893 96.235C322.268 95.5267 320.982 94.5579 320.039 93.3184C319.107 92.0684 318.586 90.6725 318.477 89.1309H325.706C325.789 89.9642 326.169 90.6413 326.852 91.1517C327.529 91.6673 328.372 91.9225 329.372 91.9225C330.289 91.9225 330.997 91.7454 331.497 91.3809C331.997 91.0215 332.247 90.5579 332.247 89.985C332.247 89.3079 331.883 88.8079 331.164 88.485C330.456 88.1517 329.299 87.7871 327.706 87.3809C325.997 86.9798 324.57 86.5632 323.435 86.1309C322.294 85.6882 321.31 84.985 320.477 84.0267C319.654 83.0684 319.247 81.7767 319.247 80.1517C319.247 78.7923 319.622 77.5475 320.372 76.4225C321.122 75.2871 322.232 74.3913 323.706 73.735C325.174 73.084 326.924 72.7559 328.956 72.7559C331.94 72.7559 334.294 73.5007 336.018 74.985C337.753 76.4746 338.747 78.4382 338.997 80.8809H332.247C332.133 80.0632 331.768 79.4121 331.143 78.9225C330.529 78.4382 329.727 78.1934 328.727 78.1934C327.878 78.1934 327.227 78.36 326.768 78.6934C326.31 79.0163 326.081 79.459 326.081 80.0267C326.081 80.709 326.44 81.2246 327.164 81.5684C327.898 81.9173 329.039 82.2559 330.581 82.5892C332.341 83.0475 333.779 83.5007 334.893 83.9434C336.003 84.3913 336.977 85.1048 337.81 86.0892C338.654 87.0632 339.091 88.3757 339.122 90.0267C339.122 91.4329 338.727 92.6829 337.935 93.7767C337.154 94.8757 336.029 95.735 334.56 96.36C333.102 96.985 331.398 97.2975 329.456 97.2975Z" fill="#479AB9"/>
<defs>
<linearGradient id="paint0_linear_327_8" x1="2.81456" y1="57.9491" x2="115.815" y2="57.9491" gradientUnits="userSpaceOnUse">
<stop stop-color="#1C7CB6"/>
<stop offset="0.125" stop-color="#1C7CB6"/>
<stop offset="0.1875" stop-color="#1C7CB6"/>
<stop offset="0.191406" stop-color="#1C7BB6"/>
<stop offset="0.195312" stop-color="#1C7BB6"/>
<stop offset="0.199219" stop-color="#1C7AB5"/>
<stop offset="0.203125" stop-color="#1C79B5"/>
<stop offset="0.207031" stop-color="#1C78B4"/>
<stop offset="0.210937" stop-color="#1D78B4"/>
<stop offset="0.214844" stop-color="#1D77B4"/>
<stop offset="0.21875" stop-color="#1D76B3"/>
<stop offset="0.222656" stop-color="#1D75B3"/>
<stop offset="0.226562" stop-color="#1D75B3"/>
<stop offset="0.230469" stop-color="#1D74B2"/>
<stop offset="0.234375" stop-color="#1D73B2"/>
<stop offset="0.238281" stop-color="#1D72B2"/>
<stop offset="0.242187" stop-color="#1D72B1"/>
<stop offset="0.246094" stop-color="#1D71B1"/>
<stop offset="0.25" stop-color="#1E70B0"/>
<stop offset="0.253906" stop-color="#1E6FB0"/>
<stop offset="0.257812" stop-color="#1E6FB0"/>
<stop offset="0.261719" stop-color="#1E6EAF"/>
<stop offset="0.265625" stop-color="#1E6DAF"/>
<stop offset="0.269531" stop-color="#1E6CAF"/>
<stop offset="0.273438" stop-color="#1E6CAE"/>
<stop offset="0.277344" stop-color="#1E6BAE"/>
<stop offset="0.28125" stop-color="#1E6AAE"/>
<stop offset="0.285156" stop-color="#1E69AD"/>
<stop offset="0.289062" stop-color="#1F68AD"/>
<stop offset="0.292969" stop-color="#1F68AD"/>
<stop offset="0.296875" stop-color="#1F67AC"/>
<stop offset="0.300781" stop-color="#1F66AC"/>
<stop offset="0.304688" stop-color="#1F65AB"/>
<stop offset="0.308594" stop-color="#1F65AB"/>
<stop offset="0.3125" stop-color="#1F64AB"/>
<stop offset="0.316406" stop-color="#1F63AA"/>
<stop offset="0.320312" stop-color="#1F62AA"/>
<stop offset="0.324219" stop-color="#1F62AA"/>
<stop offset="0.328125" stop-color="#2061A9"/>
<stop offset="0.332031" stop-color="#2060A9"/>
<stop offset="0.335938" stop-color="#205FA9"/>
<stop offset="0.339844" stop-color="#205FA8"/>
<stop offset="0.34375" stop-color="#205EA8"/>
<stop offset="0.347656" stop-color="#205DA7"/>
<stop offset="0.351562" stop-color="#205CA7"/>
<stop offset="0.355469" stop-color="#205BA7"/>
<stop offset="0.359375" stop-color="#205BA6"/>
<stop offset="0.363281" stop-color="#205AA6"/>
<stop offset="0.367188" stop-color="#2159A6"/>
<stop offset="0.371094" stop-color="#2158A5"/>
<stop offset="0.375" stop-color="#2158A5"/>
<stop offset="0.378906" stop-color="#2157A5"/>
<stop offset="0.382812" stop-color="#2156A4"/>
<stop offset="0.386719" stop-color="#2155A4"/>
<stop offset="0.390625" stop-color="#2155A4"/>
<stop offset="0.394531" stop-color="#2154A3"/>
<stop offset="0.398438" stop-color="#2153A3"/>
<stop offset="0.402344" stop-color="#2152A2"/>
<stop offset="0.40625" stop-color="#2252A2"/>
<stop offset="0.410156" stop-color="#2251A2"/>
<stop offset="0.414062" stop-color="#2250A1"/>
<stop offset="0.417969" stop-color="#224FA1"/>
<stop offset="0.421875" stop-color="#224FA1"/>
<stop offset="0.425781" stop-color="#234EA0"/>
<stop offset="0.429688" stop-color="#244DA0"/>
<stop offset="0.433594" stop-color="#254DA0"/>
<stop offset="0.4375" stop-color="#264CA0"/>
<stop offset="0.441406" stop-color="#274B9F"/>
<stop offset="0.445312" stop-color="#274B9F"/>
<stop offset="0.449219" stop-color="#284A9F"/>
<stop offset="0.453125" stop-color="#29499E"/>
<stop offset="0.457031" stop-color="#2A499E"/>
<stop offset="0.460938" stop-color="#2B489E"/>
<stop offset="0.464844" stop-color="#2C479D"/>
<stop offset="0.46875" stop-color="#2C479D"/>
<stop offset="0.472656" stop-color="#2D469D"/>
<stop offset="0.476562" stop-color="#2E459D"/>
<stop offset="0.480469" stop-color="#2F459C"/>
<stop offset="0.484375" stop-color="#30449C"/>
<stop offset="0.488281" stop-color="#31439C"/>
<stop offset="0.492188" stop-color="#31439B"/>
<stop offset="0.496094" stop-color="#32429B"/>
<stop offset="0.5" stop-color="#33419B"/>
<stop offset="0.503906" stop-color="#34419A"/>
<stop offset="0.507812" stop-color="#35409A"/>
<stop offset="0.511719" stop-color="#363F9A"/>
<stop offset="0.515625" stop-color="#363F9A"/>
<stop offset="0.519531" stop-color="#373E99"/>
<stop offset="0.523438" stop-color="#383D99"/>
<stop offset="0.527344" stop-color="#393D99"/>
<stop offset="0.53125" stop-color="#3A3C98"/>
<stop offset="0.535156" stop-color="#3A3B98"/>
<stop offset="0.539062" stop-color="#3B3B98"/>
<stop offset="0.542969" stop-color="#3C3A97"/>
<stop offset="0.546875" stop-color="#3D3997"/>
<stop offset="0.550781" stop-color="#3E3997"/>
<stop offset="0.554688" stop-color="#3F3897"/>
<stop offset="0.558594" stop-color="#3F3796"/>
<stop offset="0.5625" stop-color="#403796"/>
<stop offset="0.566406" stop-color="#413696"/>
<stop offset="0.570312" stop-color="#423595"/>
<stop offset="0.574219" stop-color="#433595"/>
<stop offset="0.578125" stop-color="#443495"/>
<stop offset="0.582031" stop-color="#443394"/>
<stop offset="0.585938" stop-color="#453394"/>
<stop offset="0.589844" stop-color="#463294"/>
<stop offset="0.59375" stop-color="#473194"/>
<stop offset="0.597656" stop-color="#483193"/>
<stop offset="0.601562" stop-color="#493093"/>
<stop offset="0.605469" stop-color="#492F93"/>
<stop offset="0.609375" stop-color="#4A2F92"/>
<stop offset="0.613281" stop-color="#4B2E92"/>
<stop offset="0.617188" stop-color="#4C2D92"/>
<stop offset="0.621094" stop-color="#4D2D91"/>
<stop offset="0.625" stop-color="#4E2C91"/>
<stop offset="0.628906" stop-color="#4E2B91"/>
<stop offset="0.632812" stop-color="#4F2B91"/>
<stop offset="0.636719" stop-color="#502A90"/>
<stop offset="0.640625" stop-color="#512990"/>
<stop offset="0.644531" stop-color="#522990"/>
<stop offset="0.648438" stop-color="#52288F"/>
<stop offset="0.652344" stop-color="#53278F"/>
<stop offset="0.65625" stop-color="#54278F"/>
<stop offset="0.660156" stop-color="#55268E"/>
<stop offset="0.664062" stop-color="#56268E"/>
<stop offset="0.667969" stop-color="#57258E"/>
<stop offset="0.671875" stop-color="#57248E"/>
<stop offset="0.675781" stop-color="#58248D"/>
<stop offset="0.679688" stop-color="#59238D"/>
<stop offset="0.683594" stop-color="#5A238D"/>
<stop offset="0.6875" stop-color="#5A228D"/>
<stop offset="0.691406" stop-color="#5B228C"/>
<stop offset="0.695312" stop-color="#5C218C"/>
<stop offset="0.699219" stop-color="#5C218C"/>
<stop offset="0.703125" stop-color="#5D218C"/>
<stop offset="0.707031" stop-color="#5D208C"/>
<stop offset="0.710938" stop-color="#5E208B"/>
<stop offset="0.714844" stop-color="#5F208B"/>
<stop offset="0.71875" stop-color="#5F1F8B"/>
<stop offset="0.722656" stop-color="#601F8B"/>
<stop offset="0.726562" stop-color="#611E8B"/>
<stop offset="0.730469" stop-color="#611E8A"/>
<stop offset="0.734375" stop-color="#621E8A"/>
<stop offset="0.738281" stop-color="#631D8A"/>
<stop offset="0.742188" stop-color="#631D8A"/>
<stop offset="0.746094" stop-color="#641D8A"/>
<stop offset="0.75" stop-color="#641C89"/>
<stop offset="0.753906" stop-color="#651C89"/>
<stop offset="0.757812" stop-color="#661B89"/>
<stop offset="0.761719" stop-color="#661B89"/>
<stop offset="0.765625" stop-color="#671B89"/>
<stop offset="0.769531" stop-color="#681A88"/>
<stop offset="0.773438" stop-color="#681A88"/>
<stop offset="0.777344" stop-color="#691A88"/>
<stop offset="0.78125" stop-color="#691988"/>
<stop offset="0.785156" stop-color="#6A1987"/>
<stop offset="0.789062" stop-color="#6B1987"/>
<stop offset="0.792969" stop-color="#6B1887"/>
<stop offset="0.796875" stop-color="#6C1887"/>
<stop offset="0.800781" stop-color="#6D1787"/>
<stop offset="0.804688" stop-color="#6D1786"/>
<stop offset="0.808594" stop-color="#6E1786"/>
<stop offset="0.8125" stop-color="#6F1686"/>
<stop offset="0.816406" stop-color="#6F1686"/>
<stop offset="0.820312" stop-color="#701686"/>
<stop offset="0.824219" stop-color="#701585"/>
<stop offset="0.828125" stop-color="#711585"/>
<stop offset="0.832031" stop-color="#721485"/>
<stop offset="0.835938" stop-color="#721485"/>
<stop offset="0.839844" stop-color="#731485"/>
<stop offset="0.84375" stop-color="#741384"/>
<stop offset="0.847656" stop-color="#741384"/>
<stop offset="0.851562" stop-color="#751384"/>
<stop offset="0.855469" stop-color="#751284"/>
<stop offset="0.859375" stop-color="#761284"/>
<stop offset="0.863281" stop-color="#771183"/>
<stop offset="0.867188" stop-color="#771183"/>
<stop offset="0.871094" stop-color="#781183"/>
<stop offset="0.875" stop-color="#791083"/>
<stop offset="0.878906" stop-color="#791083"/>
<stop offset="0.882812" stop-color="#7A1082"/>
<stop offset="0.886719" stop-color="#7A0F82"/>
<stop offset="0.890625" stop-color="#7B0F82"/>
<stop offset="0.898438" stop-color="#7C0F82"/>
<stop offset="0.90625" stop-color="#7C0F82"/>
<stop offset="0.914062" stop-color="#7D0F82"/>
<stop offset="0.921875" stop-color="#7E0F82"/>
<stop offset="0.929688" stop-color="#7F0E82"/>
<stop offset="0.9375" stop-color="#800E82"/>
<stop offset="0.945312" stop-color="#810E82"/>
<stop offset="0.953125" stop-color="#820E81"/>
<stop offset="0.960938" stop-color="#830E81"/>
<stop offset="0.96875" stop-color="#840E81"/>
<stop offset="0.976562" stop-color="#850D81"/>
<stop offset="0.984375" stop-color="#860D81"/>
<stop offset="0.992188" stop-color="#870D81"/>
<stop offset="1" stop-color="#870D81"/>
</linearGradient>
</defs>
</svg>
