<svg width="197" height="57" viewBox="0 0 197 57" fill="none" xmlns="http://www.w3.org/2000/svg">
<path d="M128.032 28.736C128.032 26.216 125.704 25.136 122.344 25.136C118.744 25.136 116.776 26.912 116.776 28.304C116.776 29.024 117.376 29.648 118.264 29.648C119.656 29.648 119.728 27.728 122.32 27.728C123.496 27.728 124.528 28.16 124.528 29.168C124.528 30.176 123.856 30.368 123.016 30.464L120.88 30.704C118.192 31.016 115.984 31.832 115.984 34.736C115.984 36.944 117.952 38.312 119.944 38.312C121.792 38.312 123.376 37.784 124.744 36.272C124.792 37.352 125.296 38.312 126.808 38.312C127.648 38.312 128.392 37.76 128.392 36.968C128.392 36.416 128.032 36.08 128.032 34.616V28.736ZM124.528 33.464C124.528 34.76 123.352 36.008 121.432 36.008C120.232 36.008 119.488 35.36 119.488 34.568C119.488 33.512 120.28 33.056 121.744 32.84L123.016 32.648C123.424 32.576 124.144 32.456 124.528 32.096V33.464ZM130.392 31.976C130.392 35.648 132.432 38.312 136.752 38.312C140.352 38.312 142.08 36.2 142.08 34.664C142.08 33.968 141.504 33.32 140.616 33.32C138.768 33.32 139.296 35.576 136.848 35.576C134.928 35.576 133.896 34.16 133.896 31.976C133.896 28.808 135.504 27.872 136.872 27.872C139.392 27.872 138.792 29.936 140.448 29.936C141.336 29.936 142.08 29.432 142.08 28.424C142.08 26.792 139.896 25.136 136.968 25.136C132.672 25.136 130.392 27.944 130.392 31.976ZM146.931 31.712C146.931 29.432 147.867 27.728 149.907 27.728C151.947 27.728 152.883 29.432 152.883 31.712C152.883 33.848 151.995 35.72 149.907 35.72C147.819 35.72 146.931 33.848 146.931 31.712ZM143.427 31.712C143.427 35.216 145.131 38.312 149.907 38.312C154.682 38.312 156.387 35.216 156.387 31.712C156.387 28.016 154.131 25.136 149.907 25.136C145.683 25.136 143.427 28.016 143.427 31.712ZM158.842 36.56C158.842 37.496 159.226 38.312 160.594 38.312C161.962 38.312 162.346 37.496 162.346 36.56V32.48C162.346 29.576 163.114 28.592 164.53 28.592H165.154C166.018 28.592 166.882 28.136 166.882 26.84C166.882 25.856 166.066 25.136 164.962 25.136C163.258 25.136 162.466 26.648 162.058 28.112H162.01V26.768C162.01 25.712 161.314 25.136 160.426 25.136C159.538 25.136 158.842 25.712 158.842 26.768V36.56ZM180.022 22.16C180.022 21.008 179.326 20.408 178.27 20.408C177.214 20.408 176.518 21.008 176.518 22.16V26.912H176.47C175.774 25.784 174.574 25.136 173.014 25.136C169.318 25.136 167.614 28.28 167.614 31.64C167.614 36.176 170.182 38.312 173.11 38.312C174.814 38.312 176.23 37.592 176.806 36.104H176.854V36.656C176.854 37.736 177.406 38.312 178.438 38.312C179.518 38.312 180.022 37.736 180.022 36.656V22.16ZM171.118 31.76C171.118 30.128 171.67 27.872 173.902 27.872C176.038 27.848 176.71 29.96 176.71 31.76C176.71 33.752 175.942 35.576 173.902 35.576C172.03 35.528 171.118 33.824 171.118 31.76ZM185.79 31.712C185.79 29.432 186.726 27.728 188.766 27.728C190.806 27.728 191.742 29.432 191.742 31.712C191.742 33.848 190.854 35.72 188.766 35.72C186.678 35.72 185.79 33.848 185.79 31.712ZM182.286 31.712C182.286 35.216 183.99 38.312 188.766 38.312C193.542 38.312 195.246 35.216 195.246 31.712C195.246 28.016 192.99 25.136 188.766 25.136C184.542 25.136 182.286 28.016 182.286 31.712Z" fill="#4165ED"/>
<path d="M66.84 29.048C66.84 31.4 68.424 32.24 70.464 32.744L72.528 33.248C73.776 33.56 74.544 33.704 74.544 34.592C74.544 35.312 73.752 35.864 72.504 35.864C69.912 35.864 69.768 33.704 68.256 33.704C67.272 33.704 66.84 34.4 66.84 35.168C66.84 36.896 69.48 38.312 72.648 38.312C75.288 38.312 78.048 36.992 78.048 34.136C78.048 31.688 75.672 30.848 73.68 30.392L72.216 30.056C71.136 29.816 70.344 29.624 70.344 28.808C70.344 28.064 71.136 27.728 72.36 27.728C74.568 27.728 74.616 29.336 75.984 29.336C76.896 29.336 77.448 28.616 77.448 27.8C77.448 26.192 74.76 25.136 72.096 25.136C69.672 25.136 66.84 26.192 66.84 29.048ZM91.9226 28.736C91.9226 26.216 89.5946 25.136 86.2346 25.136C82.6346 25.136 80.6666 26.912 80.6666 28.304C80.6666 29.024 81.2666 29.648 82.1546 29.648C83.5466 29.648 83.6186 27.728 86.2106 27.728C87.3866 27.728 88.4186 28.16 88.4186 29.168C88.4186 30.176 87.7466 30.368 86.9066 30.464L84.7706 30.704C82.0826 31.016 79.8746 31.832 79.8746 34.736C79.8746 36.944 81.8426 38.312 83.8346 38.312C85.6826 38.312 87.2666 37.784 88.6346 36.272C88.6826 37.352 89.1866 38.312 90.6986 38.312C91.5386 38.312 92.2826 37.76 92.2826 36.968C92.2826 36.416 91.9226 36.08 91.9226 34.616V28.736ZM88.4186 33.464C88.4186 34.76 87.2426 36.008 85.3226 36.008C84.1226 36.008 83.3786 35.36 83.3786 34.568C83.3786 33.512 84.1706 33.056 85.6346 32.84L86.9066 32.648C87.3146 32.576 88.0346 32.456 88.4186 32.096V33.464ZM95.1465 36.56C95.1465 37.496 95.5305 38.312 96.8985 38.312C98.2665 38.312 98.6505 37.496 98.6505 36.56V26.888C98.6505 25.952 98.2665 25.136 96.8985 25.136C95.5305 25.136 95.1465 25.952 95.1465 26.888V36.56ZM95.0745 22.136C95.0745 23.144 95.8905 23.96 96.8985 23.96C97.9065 23.96 98.7225 23.144 98.7225 22.136C98.7225 21.128 97.9065 20.312 96.8985 20.312C95.8905 20.312 95.0745 21.128 95.0745 22.136ZM113.514 26.888C113.514 25.952 113.13 25.136 111.762 25.136C110.394 25.136 110.01 25.952 110.01 26.888V32.672C110.01 34.424 108.57 35.432 107.346 35.432C105.834 35.432 105.138 34.424 105.138 33.008V26.888C105.138 25.952 104.754 25.136 103.386 25.136C102.018 25.136 101.634 25.952 101.634 26.888V33.704C101.634 37.256 103.938 38.312 106.05 38.312C108.042 38.312 109.314 37.4 110.298 36.104H110.346V36.56C110.346 37.616 110.826 38.312 111.93 38.312C113.034 38.312 113.514 37.616 113.514 36.56V26.888Z" fill="#479AB9"/>
<path d="M36.4454 43.8138C35.0095 45.9949 32.8183 46.7076 31.1116 46.7076C29.5724 46.7076 28.019 46.1481 26.7969 45.0148L8.46913 28.0688C5.88956 25.6846 5.73278 21.6646 8.11639 19.0879C10.4964 16.5113 14.519 16.3509 17.0986 18.7387L29.886 30.5599L49.7138 0H6.33492C2.83967 0 0 2.83682 0 6.33294V50.6671C0 54.1632 2.8361 57 6.33492 57H50.6687C54.1639 57 57 54.1632 57 50.6671V12.1313C48.057 25.9233 36.9477 43.0476 36.4454 43.8138Z" fill="url(#paint0_linear_2437_35889)"/>
<path d="M36.4454 43.8138C35.0095 45.9949 32.8183 46.7076 31.1116 46.7076C29.5724 46.7076 28.019 46.1481 26.7969 45.0148L8.46913 28.0688C5.88956 25.6846 5.73278 21.6646 8.11639 19.0879C10.4964 16.5113 14.519 16.3509 17.0986 18.7387L29.886 30.5599L49.7138 0H6.33492C2.83967 0 0 2.83682 0 6.33294V50.6671C0 54.1632 2.8361 57 6.33492 57H50.6687C54.1639 57 57 54.1632 57 50.6671V12.1313C48.057 25.9233 36.9477 43.0476 36.4454 43.8138Z" fill="black" fill-opacity="0.2"/>
<path d="M36.4454 43.8138C35.0095 45.9949 32.8183 46.7076 31.1116 46.7076C29.5724 46.7076 28.019 46.1481 26.7969 45.0148L8.46913 28.0688C5.88956 25.6846 5.73278 21.6646 8.11639 19.0879C10.4964 16.5113 14.519 16.3509 17.0986 18.7387L29.886 30.5599L49.7138 0H6.33492C2.83967 0 0 2.83682 0 6.33294V50.6671C0 54.1632 2.8361 57 6.33492 57H50.6687C54.1639 57 57 54.1632 57 50.6671V12.1313C48.057 25.9233 36.9477 43.0476 36.4454 43.8138Z" fill="#4165ED"/>
<defs>
<linearGradient id="paint0_linear_2437_35889" x1="-0.0408106" y1="28.4985" x2="56.9548" y2="28.4985" gradientUnits="userSpaceOnUse">
<stop stop-color="#1C7CB6"/>
<stop offset="0.19" stop-color="#1C7CB6"/>
<stop offset="0.42" stop-color="#224FA1"/>
<stop offset="0.68" stop-color="#59238D"/>
<stop offset="0.89" stop-color="#7B0F82"/>
<stop offset="1" stop-color="#880D81"/>
</linearGradient>
</defs>
</svg>
